<svg xmlns="http://www.w3.org/2000/svg">
<defs>
<font horiz-adv-x="1059" ><font-face
    font-family="Typografix"
    units-per-em="2048"
    panose-1="2 0 5 0 0 0 0 0 0 0"
    ascent="1866"
    descent="-424"
    alphabetic="0" />
<missing-glyph horiz-adv-x="1983" d="M1883 1858V-420H100V1858H1883ZM175 1802V-366H1817V1802H175ZM269 1500H308Q350 1500 366 1435Q368 1406 368 1392V1387H338V1389Q331 1430 309 1430H266Q249 1430 240 1396Q248 1361 261 1361Q261 1358 281 1358H314Q353
1358 378 1290Q383 1264 383 1228Q383 1134 329 1105Q317 1102 309 1102H282Q234 1102 214 1176V1243H237Q237 1209 260 1182Q273 1171 281 1171H313Q324 1171 339 1191Q353 1214 353 1228V1232Q342 1289 310 1289Q310 1290 300 1290H268Q227 1290 214 1345V1445Q228
1500 269 1500ZM430 1500H460V1395H488V1325H460V1122Q460 1073 487 1059Q492 1057 500 1057V990H493Q445 990 431 1073Q430 1081 430 1097V1325H405V1395H430V1500ZM808 1500H836V1102H808V1111Q793 1102 784 1102H751Q702 1102 694 1182V1318Q694 1367 736 1394L747
1395H778Q796 1395 808 1385V1500ZM874 1500H905V1430H874V1500ZM1103 1500H1294V1430H1213V1102H1182V1430H1103V1500ZM1010 1396H1018Q1057 1396 1068 1370Q1086 1349 1086 1305V1195Q1086 1125 1044 1105Q1038 1102 1032 1102H998Q951 1102 941 1184V1314Q941
1369 983 1394Q995 1396 1010 1396ZM1691 1396H1699Q1738 1396 1749 1370Q1761 1359 1761 1347V1152Q1746 1102 1713 1102H1680Q1632 1102 1623 1182V1314Q1623 1369 1664 1394Q1676 1396 1691 1396ZM520 1395H551V1210Q551 1178 576 1171H609Q631 1171 634 1218V1395H665V1102H634V1111Q621
1102 610 1102H577Q534 1102 520 1171V1395ZM874 1395H905V1102H874V1395ZM1277 1395H1307V1221Q1307 1169 1339 1169H1360Q1388 1169 1392 1209V1395H1423V1083Q1421 1001 1372 990H1277V1058H1356Q1392 1058 1392 1102V1109Q1381 1099 1352 1099H1347Q1304 1099
1292 1127Q1277 1147 1277 1210V1395ZM1452 1395H1481V1387Q1494 1395 1505 1395H1537Q1586 1395 1594 1311V1203Q1594 1129 1557 1109Q1549 1105 1533 1105H1514Q1494 1105 1481 1113V997H1452V1395ZM971 1286V1210Q971 1179 997 1171H1030Q1056 1178 1056 1213V1284Q1056

<glyph unicode=" " glyph-name="space" horiz-adv-x="453" />
<glyph unicode="!" glyph-name="exclam" horiz-adv-x="351" d="M99 1434H246V390H99V1434ZM215 184T243 157T271 91Q271 54 243 27T173 -1Q130 -1 103 26T75 91Q75 129 102 156T173 184Q215 184 243 157Z" />
<glyph unicode="&quot;" glyph-name="quotedbl" horiz-adv-x="602" d="M75 1433H222V1239L192 1047Q173 1017 150 1017Q127 1017 105 1047L75 1239V1433ZM375 1433H522V1239L492 1047Q473 1017 450 1017Q427 1017 405 1047L375 1239V1433Z" />
<glyph unicode="#" glyph-name="numbersign" horiz-adv-x="1247" d="M695 559L774 781H547L468 559H695ZM1110 1294L977 918H1167V781H929L850 559H1167V422H802L652 -2L515 46L647 422H420L269 -2L132 46L264 422H75V559H313L391 781H75V918H440L590 1342L727
1294L595 918H822L972 1342L1110 1294Z" />
<glyph unicode="$" glyph-name="dollar" horiz-adv-x="1285" d="M743 137Q872 137 964 229Q1058 324 1058 457Q1058 599 986 671Q904 753 714 770V137H743ZM567 914V1295H407Q321 1295 272 1239Q225 1185 225 1105Q225 1026 270 972Q320 915 407 915L446 914H567ZM714
908Q971 887 1092 766Q1205 654 1205 457Q1205 269 1070 134Q936 0 743 0H714V-163H567V0H75V137H567V777H445L406 778Q252 778 160 882Q78 974 78 1105Q78 1235 159 1326Q251 1432 407 1432H567V1595H714V1432H973V1295H714V908Z" />
<glyph unicode="%" glyph-name="percent" horiz-adv-x="1214" d="M998 1467L1119 1389L211 -23L90 55L998 1467ZM297 1161Q268 1161 245 1138Q222 1115 222 1081Q222 1047 245 1024Q268 1001 297 1001Q327 1001 350 1024Q373 1047 373 1081Q373 1115 350 1138Q327
1161 297 1161ZM297 864Q203 864 140 927Q75 992 75 1081Q75 1170 140 1235Q203 1298 297 1298Q391 1298 456 1233Q520 1170 520 1081Q520 992 456 929Q391 864 297 864ZM911 283Q941 283 964 306Q987 329 987 363Q987 397 964 420Q941 443 911 443Q882 443 859
420Q836 397 836 363Q836 329 859 306Q882 283 911 283ZM911 580Q1005 580 1070 515Q1134 452 1134 363Q1134 274 1070 211Q1005 146 911 146Q817 146 754 209Q689 274 689 363Q689 452 754 517Q817 580 911 580Z" />
<glyph unicode="&amp;" glyph-name="ampersand" horiz-adv-x="1269" d="M514 1432H551Q596 1432 656 1410Q776 1361 833 1249Q848 1218 857 1185Q867 1149 867 1081V1037H725V1102Q725 1194 653 1257Q598 1301 532 1301Q459 1301 401 1248Q340 1185 340 1107V1100Q340
1019 404 956L418 944Q437 930 462 919Q493 905 550 905H604V774H545Q467 774 411 749Q384 738 353 716Q304 683 272 634Q216 550 216 452Q216 322 313 220Q410 131 534 131Q636 131 726 198Q769 235 784 258Q809 291 822 323Q834 352 842 386Q847 415 847 422Q808
449 792 449Q779 449 745 410Q713 369 666 291H661Q655 291 598 328L545 362Q545 363 585 424Q607 460 645 504Q714 581 792 581Q867 581 958 509Q1006 477 1029 472Q1041 472 1071 503Q1101 538 1124 576Q1144 608 1150 616H1159Q1268 546 1269 545Q1269 542 1216
464Q1127 339 1024 339Q999 339 978 345Q965 297 950 265Q934 230 906 190Q887 163 854 130Q816 93 796 81Q764 59 723 40Q679 19 630 9Q587 0 554 0H511Q435 0 338 41Q298 60 251 93Q229 111 195 146Q151 196 127 240Q108 275 91 329Q75 390 75 431V477Q75 531
103 612Q166 770 315 852Q197 957 197 1105Q197 1214 268 1306Q305 1348 329 1366Q389 1410 464 1427Q495 1432 514 1432Z" />
<glyph unicode="&apos;" glyph-name="quotesingle" horiz-adv-x="302" d="M75 1433H222V1239L192 1047Q173 1017 150 1017Q127 1017 105 1047L75 1239V1433Z" />
<glyph unicode="(" glyph-name="parenleft" horiz-adv-x="617" d="M606 1434Q554 1377 502 1312Q419 1204 377 1126Q331 1041 301 967Q213 740 213 520V515Q213 513 212 508Q213 504 213 501V497Q213 224 348 -54Q392 -143 470 -253Q516 -318 607 -418H433Q285
-241 248 -169Q133 42 92 282Q75 396 75 461V555Q75 651 106 806Q129 907 161 994Q196 1088 253 1196Q299 1281 433 1434H606Z" />
<glyph unicode=")" glyph-name="parenright" horiz-adv-x="618" d="M180 1434Q314 1281 360 1196Q417 1088 452 994Q484 907 507 806Q538 651 538 555V461Q538 396 521 282Q480 42 365 -169Q328 -241 180 -418H6Q97 -318 143 -253Q221 -143 265 -54Q400 224 400
497V501Q400 504 401 508Q400 513 400 515V520Q400 740 312 967Q282 1041 236 1126Q194 1204 111 1312Q59 1377 7 1434H180Z" />
<glyph unicode="*" glyph-name="asterisk" horiz-adv-x="894" d="M719 1324L814 1218L542 1040L814 861L719 756L521 886V645H374V886L175 756L80 861L352 1040L80 1218L175 1324L374 1193V1434H521V1193L719 1324Z" />
<glyph unicode="+" glyph-name="plus" horiz-adv-x="1223" d="M679 574H1143V444H679V-20H539V444H75V574H539V1037H679V574Z" />
<glyph unicode="," glyph-name="comma" horiz-adv-x="351" d="M154 1Q125 4 103 26Q75 54 75 91Q75 129 102 156T173 184Q215 184 243 157T271 91V85Q249 -91 144 -162Q134 -167 127 -167Q114 -167 114 -158Q114 -154 116 -147Q154 -60 154 1Z" />
<glyph unicode="-" glyph-name="hyphen" horiz-adv-x="654" d="M75 575H574V438H75V575Z" />
<glyph unicode="." glyph-name="period" horiz-adv-x="1983" d="M1883 1858V-420H100V1858H1883ZM175 1802V-366H1817V1802H175ZM269 1500H308Q350 1500 366 1435Q368 1406 368 1392V1387H338V1389Q331 1430 309 1430H266Q249 1430 240 1396Q248 1361 261 1361Q261
1358 281 1358H314Q353 1358 378 1290Q383 1264 383 1228Q383 1134 329 1105Q317 1102 309 1102H282Q234 1102 214 1176V1243H237Q237 1209 260 1182Q273 1171 281 1171H313Q324 1171 339 1191Q353 1214 353 1228V1232Q342 1289 310 1289Q310 1290 300 1290H268Q227
1290 214 1345V1445Q228 1500 269 1500ZM430 1500H460V1395H488V1325H460V1122Q460 1073 487 1059Q492 1057 500 1057V990H493Q445 990 431 1073Q430 1081 430 1097V1325H405V1395H430V1500ZM808 1500H836V1102H808V1111Q793 1102 784 1102H751Q702 1102 694 1182V1318Q694
1367 736 1394L747 1395H778Q796 1395 808 1385V1500ZM874 1500H905V1430H874V1500ZM1103 1500H1294V1430H1213V1102H1182V1430H1103V1500ZM1010 1396H1018Q1057 1396 1068 1370Q1086 1349 1086 1305V1195Q1086 1125 1044 1105Q1038 1102 1032 1102H998Q951 1102
941 1184V1314Q941 1369 983 1394Q995 1396 1010 1396ZM1691 1396H1699Q1738 1396 1749 1370Q1761 1359 1761 1347V1152Q1746 1102 1713 1102H1680Q1632 1102 1623 1182V1314Q1623 1369 1664 1394Q1676 1396 1691 1396ZM520 1395H551V1210Q551 1178 576 1171H609Q631
1171 634 1218V1395H665V1102H634V1111Q621 1102 610 1102H577Q534 1102 520 1171V1395ZM874 1395H905V1102H874V1395ZM1277 1395H1307V1221Q1307 1169 1339 1169H1360Q1388 1169 1392 1209V1395H1423V1083Q1421 1001 1372 990H1277V1058H1356Q1392 1058 1392 1102V1109Q1381
1099 1352 1099H1347Q1304 1099 1292 1127Q1277 1147 1277 1210V1395ZM1452 1395H1481V1387Q1494 1395 1505 1395H1537Q1586 1395 1594 1311V1203Q1594 1129 1557 1109Q1549 1105 1533 1105H1514Q1494 1105 1481 1113V997H1452V1395ZM971 1286V1210Q971 1179 997
1171H1030Q1056 1178 1056 1213V1284Q1056 1326 1020 1326H1002Q986 1326 979 1314Q971 1302 971 1286ZM1481 1211Q1481 1177 1512 1173H1529Q1553 1173 1561 1195Q1563 1207 1563 1213V1286Q1560 1326 1537 1326H1512Q1487 1326 1481 1291V1211ZM1652 1286V1210Q1652
1179 1679 1171H1712Q1737 1178 1737 1213V1284Q1737 1326 1703 1326H1683Q1667 1326 1660 1314Q1652 1302 1652 1286ZM723 1287V1209Q729 1171 750 1171H783Q806 1171 808 1223V1269Q808 1312 788 1323L780 1325H750Q723 1318 723 1287ZM559 1069H569V1048H577Q592
1048 592 1029V989H581V1025Q581 1033 576 1034H574Q569 1034 569 1022V989H559V1069ZM987 1069H998V1048H1006Q1020 1048 1020 1021V989H1008V1033L1002 1034L998 1029V989H987V1069ZM1174 1069H1186V1048H1192V1034H1186V1014Q1186 1004 1194 1004V989H1192Q1178
989 1174 1010V1034H1170V1048H1174V1069ZM529 1048H544Q549 1048 552 1036V1032L541 1028Q541 1034 537 1034H536Q534 1034 532 1029V1011L533 1004H537Q541 1004 541 1010L552 1007V1003Q550 989 537 989Q520 990 520 1004V1032Q520 1043 529 1048ZM609 1048H618Q633
1048 633 1017Q633 989 614 989Q600 991 600 1006V1033Q600 1044 609 1048ZM649 1048H663Q673 1043 673 1032V1004Q673 990 655 989Q639 989 639 1013V1025Q639 1044 649 1048ZM687 1048H702Q706 1042 706 1026H703Q710 1018 710 1008Q707 989 694 989Q679 991
679 1006V1014H687V1015Q679 1016 679 1026V1034Q679 1045 687 1048ZM723 1048H738Q747 1043 747 1034V1015H727V1007Q727 1004 730 1004H735L736 1011H747V1006Q747 989 730 989Q714 989 714 1020V1021Q714 1043 723 1048ZM776 1048H787V1018L788 1004H796L799
1011V1048H809V985Q809 972 800 967H786Q778 967 778 992H783Q776 998 776 1014V1048ZM827 1048H841Q851 1044 851 1025V1013Q851 989 835 989Q817 990 817 1004V1032Q817 1043 827 1048ZM857 1048H870V1007Q871 1004 873 1004H878L880 1011V1048H890V989H876Q857
989 857 1017V1048ZM898 1048H921V1034Q909 1034 909 1025V989H898V1048ZM957 1048H971Q981 1044 981 1033Q976 1028 970 1028Q970 1034 965 1034H963Q961 1034 961 1032V1007Q961 1004 963 1004H969L970 1010H973Q981 1007 981 1003Q981 990 963 989Q947 989 947
1020V1021Q947 1043 957 1048ZM1035 1048H1048Q1058 1048 1058 1020V1008Q1060 998 1060 997L1058 987H1054Q1051 987 1051 990Q1045 987 1042 987H1038Q1026 993 1026 1008Q1026 1019 1032 1025V1026H1027V1034Q1027 1045 1035 1048ZM1065 1048H1087V1034Q1076
1034 1076 1024V989H1065V1048ZM1101 1048H1116Q1124 1045 1124 1028V1008Q1124 1003 1129 1000Q1125 987 1123 987H1119Q1119 990 1117 990Q1113 987 1108 987Q1095 987 1094 1004V1013Q1094 1021 1100 1026H1094V1033Q1097 1048 1101 1048ZM1141 1048H1156Q1165
1044 1165 1033Q1159 1028 1154 1028Q1154 1034 1149 1034H1148Q1145 1034 1145 1032V1007Q1145 1004 1148 1004H1151Q1154 1004 1154 1010H1157Q1165 1007 1165 1003Q1165 989 1148 989Q1132 989 1132 1021Q1132 1043 1141 1048ZM1210 1048H1219Q1232 1048 1232
1033V1015H1212V1007Q1212 1004 1214 1004H1218Q1221 1004 1221 1011H1234Q1234 989 1214 989Q1200 991 1200 1006V1033Q1200 1044 1210 1048ZM1240 1048H1262V1034Q1251 1034 1251 1024V989H1240V1048ZM614 1034L610 1029V1007Q612 1004 614 1004H617Q621 1004
621 1007V1033L614 1034ZM650 1022V1015Q650 1005 655 1004H661L662 1011V1029Q662 1032 657 1034H655Q650 1034 650 1022ZM690 1034V1029H695V1034H690ZM727 1032H735Q735 1034 731 1034H730Q727 1034 727 1032ZM828 1029V1011L830 1004H835Q840 1005 840 1015V1022Q840
1034 835 1034H833Q831 1034 828 1029ZM1038 1032V1028H1044V1034H1042Q1038 1034 1038 1032ZM1105 1032V1028H1111V1034H1108Q1105 1034 1105 1032ZM1214 1034L1213 1032H1221V1033L1214 1034ZM690 1014V1007Q690 1004 694 1004H697Q697 1008 698 1008Q697 1011
697 1014H690ZM1038 1011V1006Q1038 1003 1042 1003Q1044 1003 1044 1006V1014H1042Q1038 1014 1038 1011ZM1105 1011V1010L1107 1003H1108Q1113 1004 1113 1014H1108Q1105 1014 1105 1011ZM788 989V985Q790 982 792 982H793Q795 982 799 986V989H788ZM950 656H953L969
655V633Q972 546 972 477L961 475H953Q949 563 949 645V648L950 656ZM1639 656H1642L1661 655Q1659 644 1659 638Q1659 571 1663 477L1647 475H1643Q1639 546 1638 634Q1639 648 1639 656ZM1039 649H1045Q1045 647 1055 635Q1049 613 1049 598V576Q1049 522 1070
505H1071Q1101 505 1120 648H1122Q1139 644 1141 644Q1131 572 1131 537Q1131 499 1148 499Q1152 479 1152 475H1141Q1122 475 1112 514H1111Q1096 479 1073 479H1067Q1039 479 1030 555Q1029 560 1029 582V595Q1029 627 1039 649ZM1460 649H1468Q1484 649 1507
616Q1524 588 1524 561V549Q1524 504 1468 478Q1458 475 1449 475H1440Q1397 475 1390 528V539Q1390 600 1446 647Q1457 649 1460 649ZM290 645H304Q342 638 342 595Q342 554 296 535Q280 529 259 526V481H258Q250 481 239 484V526H232L224 528Q224 541 231 551L239
550V551Q238 601 230 601Q222 611 222 615Q247 645 290 645ZM1411 539V529Q1411 502 1446 499Q1476 499 1497 532Q1503 542 1503 555V559Q1503 592 1468 624Q1463 624 1463 626Q1441 626 1416 565Q1411 550 1411 539ZM256 612Q258 568 258 554Q259 554 259 551Q299
559 311 572Q321 584 321 594Q321 617 301 620H293Q256 617 256 612ZM506 616Q532 616 544 555Q542 555 523 549Q515 590 506 590Q482 580 477 497Q479 480 479 479Q465 477 458 477Q441 562 441 584Q457 587 461 587V586Q461 581 465 563H466Q481 616 506 616ZM690
608Q717 608 734 568Q738 557 738 547V543Q738 499 690 478Q682 477 677 477Q639 482 639 524Q639 586 674 605Q677 606 690 608ZM796 608Q822 608 846 497Q847 497 847 489Q836 481 830 481Q810 558 798 579Q786 564 773 493Q772 493 766 481H757Q747 481 744
551Q742 568 742 580Q751 582 762 582Q765 561 765 557H766Q776 608 796 608ZM1586 608Q1607 608 1635 489Q1621 481 1616 481Q1596 562 1582 579Q1574 565 1557 488Q1553 481 1551 481H1543Q1533 481 1529 580Q1538 582 1549 582Q1551 559 1551 555H1553Q1562
608 1586 608ZM600 606Q625 599 625 584V583Q625 581 611 573H609Q603 582 592 582Q573 582 569 569Q569 562 609 561Q636 547 636 519Q636 488 609 477L598 475H592Q558 475 544 502V504Q545 508 556 518H558Q574 499 596 499Q616 504 616 519Q611 537 587 537Q548
537 548 565V569Q548 606 600 606ZM1208 606Q1226 606 1235 583V582Q1220 573 1216 573Q1216 581 1201 582Q1184 582 1177 570V569Q1177 562 1217 561Q1244 549 1244 517Q1244 484 1211 475H1200Q1168 475 1152 502V504Q1162 518 1164 518H1167Q1183 499 1204 499Q1224
504 1224 519Q1224 533 1201 537Q1167 537 1160 551Q1156 565 1156 569Q1156 606 1208 606ZM1673 605H1675Q1692 601 1694 601Q1692 580 1692 570V559Q1695 515 1710 515H1711Q1736 531 1736 597V598H1757V594Q1767 497 1767 485Q1767 429 1726 417Q1723 416 1718
416H1711Q1687 416 1679 439Q1678 445 1678 451V452Q1678 471 1683 471H1684Q1696 464 1700 464L1699 451Q1699 442 1711 441H1715Q1747 441 1747 493Q1747 499 1744 519H1743Q1732 489 1708 489H1707Q1680 489 1671 547V569Q1671 581 1673 605ZM404 602Q436 598
436 576V568Q436 543 382 524H369Q369 510 392 505Q407 505 420 526H426Q437 512 437 508Q415 481 396 481H386Q351 481 345 536Q345 586 388 601L404 602ZM888 602H903Q941 592 941 547Q940 522 940 505Q940 504 943 484Q931 475 925 475H924L920 488Q904 478
888 478H879Q848 482 848 505V514Q848 550 893 557Q908 556 920 549V551Q915 582 896 582Q885 582 871 570H868Q865 571 856 583V586Q873 602 888 602ZM1306 602Q1339 597 1339 575Q1339 539 1281 524H1272V522Q1281 505 1293 505Q1307 505 1325 526H1327Q1329
526 1339 512Q1339 500 1311 484Q1305 481 1298 481H1289Q1255 481 1248 535Q1248 584 1290 601L1306 602ZM660 525Q662 502 677 502H681Q715 512 717 546V549Q708 582 689 582H686Q668 582 661 542Q660 534 660 525ZM369 549Q395 549 415 572V575Q404 577 401
577Q379 577 369 554V549ZM1272 549H1276Q1299 549 1319 573Q1311 577 1306 577H1303Q1280 577 1272 550V549ZM869 512V508Q869 505 883 500Q907 500 917 522Q907 530 892 530Q869 526 869 512ZM802 350Q819 350 822 309V305L814 304H811Q807 329 799 329Q791 329
789 307Q790 304 790 302Q790 288 794 254Q799 257 806 257H810V238L795 234Q802 164 802 149H787Q781 216 781 229H779Q772 227 765 227V248Q773 248 779 250Q775 276 775 315Q779 350 798 350H802ZM1075 350Q1091 350 1097 305L1086 304H1083V305Q1083 323 1073
329Q1063 324 1063 311Q1063 302 1066 255Q1067 255 1067 254Q1074 257 1081 257H1082L1083 246V238Q1082 238 1067 234L1070 231Q1070 216 1075 149H1059Q1059 157 1054 229Q1042 227 1038 227V248L1053 249Q1049 307 1049 314Q1049 350 1075 350ZM927 330H933L941
329V319Q941 243 945 156H929Q927 236 927 281V330ZM964 330H965L976 329V292Q976 253 980 156H965Q960 237 960 323V327Q960 330 964 330ZM678 326Q689 323 692 323Q689 287 689 272H692L708 274L709 254Q707 253 690 250L694 159L692 157H681Q677 192 674 249H655V269L671
271H674V292Q674 326 678 326ZM1322 326Q1325 326 1338 323Q1335 308 1335 287V272H1338L1354 274V253H1351L1335 250L1341 159L1333 157H1325Q1321 233 1321 249H1300L1301 260V269L1317 271H1319V272Q1319 297 1322 326ZM1524 326Q1527 326 1540 323Q1537 302
1537 281V272H1540L1556 274V264L1557 254Q1555 253 1537 250L1538 243Q1538 225 1543 159L1540 157H1527L1522 249H1503V269L1519 271H1521L1524 326ZM506 322H519Q538 322 550 293Q542 286 542 283H539Q525 302 509 302Q487 302 461 269Q449 245 449 227V221Q449
185 482 177Q484 176 493 176Q536 180 536 202V214Q530 217 519 217H506V238Q544 238 552 227Q554 219 554 216Q550 185 550 180Q550 167 556 148Q555 148 546 141H544Q538 141 536 169Q528 159 496 155H493Q441 155 433 217V222Q433 293 496 320L506 322ZM1144
282Q1176 282 1191 235V218Q1191 176 1144 157L1135 156Q1112 156 1102 180Q1098 193 1098 202V206Q1098 257 1126 276Q1136 282 1144 282ZM1251 282Q1272 282 1298 167H1297Q1290 162 1284 162Q1264 244 1251 260Q1241 250 1219 162L1216 160H1211Q1202 160 1199
255L1209 257H1212Q1216 237 1216 216H1217Q1231 282 1251 282ZM620 278Q647 273 647 254Q649 254 649 250Q649 222 601 206Q594 203 580 203V202Q580 187 604 180H605Q619 180 637 199H641Q641 197 649 188V187Q630 160 609 160H601Q574 160 563 199V218Q563 259
600 275Q606 278 620 278ZM1444 278H1460Q1482 278 1493 243Q1495 223 1497 221Q1495 214 1493 189Q1495 183 1495 160L1487 156H1483L1479 170Q1465 157 1444 157H1438Q1410 161 1410 181V191Q1414 231 1452 231Q1468 231 1481 221V224Q1481 256 1455 261H1452Q1443
261 1428 250H1427Q1425 250 1418 260V262Q1433 278 1444 278ZM823 275Q827 275 839 272Q839 180 859 180Q884 194 896 262Q899 268 899 275H900Q903 275 913 272Q909 242 909 216V202Q909 190 916 178Q909 169 909 164H907Q896 169 895 196H893Q887 177 867 160H854Q826
160 826 253V265L823 275ZM1112 206Q1115 177 1134 177H1135Q1156 177 1172 209Q1176 219 1176 222Q1168 261 1146 261H1141Q1119 261 1112 206ZM579 222Q611 222 633 249Q629 257 617 257H613Q587 257 579 222ZM1424 187Q1428 177 1438 177H1448Q1467 177 1478
199Q1466 210 1454 210H1451Q1424 206 1424 187ZM647 42Q650 42 671 38Q666 -10 665 -76Q665 -118 678 -161Q663 -174 661 -174H660Q657 -174 652 -158H650Q650 -168 620 -177Q574 -177 555 -125Q550 -111 550 -91Q550 -31 598 -19H603Q624 -19 644 -39V-37Q644
-28 647 42ZM384 35L404 29Q401 1 401 -16V-32Q419 -29 423 -29Q425 -54 425 -59H423Q410 -60 401 -60Q406 -138 409 -172Q392 -175 385 -175V-174Q378 -98 378 -65L376 -63H355V-33H377V-22Q377 35 384 35ZM879 35H880L901 29Q899 -6 899 -26V-32Q917 -29 920
-29L921 -46V-59Q900 -60 900 -62Q900 -89 907 -172Q888 -175 883 -175V-174Q876 -81 876 -63H852V-33H875Q875 10 879 35ZM702 32Q715 32 717 14V13Q717 0 706 -7H697Q685 0 685 14Q687 32 702 32ZM787 -19Q821 -19 843 -66Q846 -79 846 -87V-98Q846 -147 791
-172Q786 -175 774 -175Q736 -175 730 -124V-107Q730 -44 771 -22Q784 -19 787 -19ZM1053 -19H1059Q1075 -19 1075 -23V-25Q1088 -19 1102 -19Q1136 -19 1147 -74Q1147 -87 1148 -91Q1144 -155 1106 -170L1095 -171H1081L1082 -181Q1082 -188 1083 -230H1059Q1053
-68 1053 -19ZM1212 -19Q1244 -19 1266 -63Q1272 -78 1272 -92Q1272 -145 1219 -172Q1208 -175 1200 -175Q1169 -175 1156 -141Q1154 -127 1154 -113Q1154 -46 1195 -22Q1211 -19 1212 -19ZM1492 -19Q1525 -19 1546 -63Q1551 -72 1551 -86V-95Q1551 -149 1497 -172Q1491
-175 1479 -175Q1441 -175 1435 -124V-107Q1435 -44 1476 -22Q1490 -19 1492 -19ZM1621 -19Q1645 -19 1659 -91H1661Q1671 -19 1697 -19H1699Q1732 -19 1755 -165H1752Q1736 -171 1734 -171H1732Q1707 -50 1697 -50Q1684 -77 1675 -151Q1670 -164 1661 -164Q1650
-164 1645 -145Q1627 -51 1619 -51Q1597 -123 1597 -167Q1583 -171 1573 -171V-170L1557 -41Q1574 -34 1580 -34Q1582 -44 1586 -72H1588Q1600 -19 1621 -19ZM303 -21Q336 -27 336 -46V-47Q335 -50 320 -59H315Q315 -50 297 -48H296Q279 -48 269 -62V-66Q269 -74
312 -74Q348 -88 348 -121V-127Q348 -161 319 -174Q312 -177 305 -177H293Q261 -177 239 -146Q239 -140 254 -127H258Q269 -148 299 -148Q324 -148 324 -124Q324 -106 295 -101Q257 -101 250 -87Q246 -77 246 -72V-63Q246 -21 303 -21ZM933 -22Q950 -26 953 -26Q952
-55 952 -69V-76Q952 -117 969 -130H976Q1006 -108 1006 -41V-29H1030V-30Q1041 -140 1041 -158V-170Q1041 -224 1001 -244Q989 -249 980 -249Q950 -249 940 -225Q936 -220 936 -214V-202Q936 -184 943 -184L961 -192L960 -202V-207Q960 -217 976 -219H981Q1008
-219 1016 -179Q1017 -174 1017 -164V-139L1016 -123H1014Q1000 -160 974 -160H972Q940 -160 929 -98Q928 -88 928 -73V-63Q928 -22 933 -22ZM1376 -23H1386Q1395 -23 1408 -34Q1422 -48 1422 -56Q1408 -72 1406 -72H1405Q1390 -54 1381 -54H1378Q1362 -60 1353
-88L1347 -114Q1347 -141 1366 -144H1371Q1386 -144 1418 -124H1420Q1428 -148 1428 -151Q1393 -174 1363 -174Q1331 -174 1324 -117Q1324 -75 1351 -37Q1366 -23 1376 -23ZM690 -25H706L714 -26Q714 -30 713 -36Q714 -119 718 -171H693L692 -161Q690 -77 690 -25ZM431
-26Q455 -32 455 -34V-59Q455 -141 471 -141H477Q501 -118 511 -74Q517 -61 520 -26H522Q542 -29 542 -34Q538 -86 538 -107V-119Q538 -131 546 -144Q546 -151 532 -167H531Q515 -151 515 -135H514Q498 -171 475 -171H471Q431 -171 431 -56V-26ZM574 -95Q574 -137
616 -145H620Q637 -145 641 -113V-110Q641 -65 612 -50L604 -48H601Q578 -48 574 -92V-95ZM752 -114Q752 -141 773 -145H779Q800 -145 819 -110Q822 -105 822 -98V-87Q812 -48 789 -48H787Q757 -48 752 -114ZM1075 -59Q1075 -63 1079 -141L1089 -142Q1119 -142
1126 -91Q1121 -48 1102 -48H1099Q1087 -48 1075 -59ZM1177 -114V-120Q1177 -141 1199 -145H1201Q1224 -145 1243 -113Q1248 -104 1248 -91Q1240 -48 1209 -48Q1183 -48 1177 -114ZM1457 -114Q1457 -145 1481 -145H1484Q1505 -145 1525 -109Q1527 -100 1527 -95V-87Q1517
-48 1493 -48H1491Q1463 -48 1457 -114ZM1298 -132Q1311 -132 1314 -148V-156Q1311 -171 1298 -171Q1285 -171 1282 -152Q1284 -132 1298 -132Z" />
<glyph unicode="/" glyph-name="slash" horiz-adv-x="863" d="M-6 -418L689 1434H846L149 -418H-6Z" />
<glyph unicode="0" glyph-name="zero" horiz-adv-x="1146" d="M919 942Q919 1089 815 1193Q712 1295 570 1295Q428 1295 326 1193Q222 1089 222 942V490Q222 343 326 239Q428 137 570 137Q712 137 815 239Q919 343 919 490V942ZM570 1432Q777 1432 921 1288Q1066
1143 1066 942V490Q1066 289 921 144Q777 0 570 0Q364 0 220 144Q75 289 75 490V942Q75 1143 220 1288Q364 1432 570 1432Z" />
<glyph unicode="1" glyph-name="one" horiz-adv-x="503" d="M220 1432Q306 1432 364 1374Q423 1315 423 1234V0H276V1234Q276 1260 259 1277Q241 1295 220 1295H10V1432H220Z" />
<glyph unicode="2" glyph-name="two" horiz-adv-x="1142" d="M234 159Q223 152 223 145V143Q225 137 227 137H1062V0H227Q173 0 131 34Q92 65 80 114Q75 134 75 152Q75 225 151 273L523 505Q552 523 611 557Q779 653 831 713Q915 812 915 943Q915 1090 813 1192Q710
1295 569 1295Q427 1295 324 1192Q222 1090 222 943V875H75V943Q75 1144 218 1287Q363 1432 569 1432Q775 1432 919 1287Q1062 1144 1062 943Q1062 764 945 628Q877 547 687 440Q631 408 605 391L234 159Z" />
<glyph unicode="3" glyph-name="three" horiz-adv-x="1036" d="M505 931Q717 905 842 763Q956 635 956 466Q956 280 820 148Q669 0 417 0H75V137H417Q606 137 713 240Q808 333 808 466Q808 600 711 695Q603 799 413 799H99L734 1283Q739 1286 743 1293Q737 1295
727 1295H88V1432H727Q851 1432 883 1337Q890 1316 890 1296Q890 1274 882 1251Q866 1207 827 1175L505 931Z" />
<glyph unicode="4" glyph-name="four" horiz-adv-x="1147" d="M773 448V1285Q773 1293 770 1294Q769 1295 768 1295Q765 1295 762 1290L227 468Q223 461 223 456Q223 453 224 451Q226 448 227 448H773ZM920 1285V448H1137V311H919V0H772V311H227Q133 311 91 394Q75
425 75 456Q75 498 103 539L644 1367Q670 1408 719 1424Q743 1432 768 1432Q794 1432 818 1424Q865 1408 892 1369Q920 1331 920 1285Z" />
<glyph unicode="5" glyph-name="five" horiz-adv-x="1112" d="M489 992Q744 992 896 834Q1032 693 1032 494Q1032 294 897 156Q746 0 494 0H75V137H494Q681 137 788 247Q885 348 885 494Q885 639 788 742Q678 855 489 855H118V1432H858V1295H265V992H489Z" />
<glyph unicode="6" glyph-name="six" horiz-adv-x="1202" d="M599 137Q752 137 864 249Q975 360 975 519Q975 678 863 790Q752 900 599 900Q445 900 334 790Q222 678 222 519Q222 360 333 249Q445 137 599 137ZM599 1037Q817 1037 969 885Q1122 732 1122 519Q1122
305 969 152Q817 0 599 0Q380 0 228 152Q75 305 75 519Q75 668 158 798L208 867L717 1463L827 1371L539 1034Q569 1037 599 1037Z" />
<glyph unicode="7" glyph-name="seven" horiz-adv-x="1102" d="M803 1432Q916 1432 974 1337Q1004 1288 1004 1239Q1004 1194 980 1150L387 0L260 66L851 1208Q859 1223 859 1238Q859 1254 849 1271Q832 1298 803 1298H75V1432H803Z" />
<glyph unicode="8" glyph-name="eight" horiz-adv-x="1072" d="M534 137Q661 137 752 228Q845 322 845 454Q845 586 753 678Q661 770 534 770Q407 770 315 680Q222 586 222 454Q222 322 314 230Q407 137 534 137ZM534 1295Q458 1295 401 1238Q345 1182 345 1101Q345
1020 401 964Q458 907 534 907Q610 907 666 962Q722 1020 722 1101Q722 1182 666 1240Q610 1295 534 1295ZM754 852Q863 791 927 686Q992 579 992 454Q992 267 858 133Q725 0 534 0Q342 0 209 133Q75 267 75 454Q75 579 141 686Q204 791 314 852Q198 952 198 1101Q198
1237 296 1335Q393 1432 534 1432Q674 1432 771 1335Q869 1237 869 1101Q869 952 754 852Z" />
<glyph unicode="9" glyph-name="nine" horiz-adv-x="1202" d="M219 921Q219 765 329 656Q437 548 588 548Q738 548 846 656Q956 765 956 921Q956 1077 847 1185Q738 1295 588 1295Q437 1295 328 1185Q219 1077 219 921ZM588 1429Q801 1429 950 1280Q1100 1130
1100 921Q1100 775 1020 648L1002 622L471 -3L365 87L646 417Q616 414 588 414Q374 414 225 563Q75 713 75 921Q75 1130 225 1280Q374 1429 588 1429Z" />
<glyph unicode=":" glyph-name="colon" horiz-adv-x="346" d="M215 184T243 157T271 91Q271 54 243 27T173 -1Q130 -1 103 26T75 91Q75 129 102 156T173 184Q215 184 243 157ZM215 1024T243 997T271 931Q271 894 243 867T173 839Q130 839 103 866T75 931Q75 969
102 996T173 1024Q215 1024 243 997Z" />
<glyph unicode=";" glyph-name="semicolon" horiz-adv-x="346" d="M154 1Q125 4 103 26Q75 54 75 91Q75 129 102 156T173 184Q215 184 243 157T271 91V85Q249 -91 144 -162Q134 -167 127 -167Q114 -167 114 -158Q114 -154 116 -147Q154 -60 154 1ZM215 1024T243
997T271 931Q271 894 243 867T173 839Q130 839 103 866T75 931Q75 969 102 996T173 1024Q215 1024 243 997Z" />
<glyph unicode="&lt;" glyph-name="less" horiz-adv-x="942" d="M857 1190L912 1062L302 695L912 328L857 200L10 695L857 1190Z" />
<glyph unicode="=" glyph-name="equal" horiz-adv-x="965" d="M75 977H885V840H75V977ZM75 577H885V440H75V577Z" />
<glyph unicode="&gt;" glyph-name="greater" horiz-adv-x="942" d="M932 695L85 200L30 328L640 695L30 1062L85 1190L932 695Z" />
<glyph unicode="?" glyph-name="question" horiz-adv-x="996" d="M495 1435Q671 1435 793 1313Q916 1190 916 1020Q916 867 816 752Q716 636 569 611V381H422V741H495Q606 741 687 821Q769 903 769 1020Q769 1136 687 1218Q606 1298 495 1298Q384 1298 304 1218Q222
1136 222 1020Q222 933 269 865L149 784Q75 893 75 1020Q75 1190 198 1313Q320 1435 495 1435ZM532 184T560 157T588 91Q588 54 560 27T490 -1Q447 -1 420 26T392 91Q392 129 419 156T490 184Q532 184 560 157Z" />
<glyph unicode="@" glyph-name="at" horiz-adv-x="1697" d="M1191 32Q1027 -50 846 -50H845Q525 -50 300 176Q75 399 75 716Q75 1032 300 1255Q525 1482 846 1482Q1167 1482 1392 1255Q1617 1032 1617 716Q1617 524 1517 380Q1421 240 1302 234H1290Q1220 234
1174 279Q1109 340 1109 517V533L1110 710Q1110 843 1024 919Q971 965 893 979Q863 985 834 985Q787 985 742 970Q562 915 562 710Q562 540 709 464Q770 433 838 433Q847 433 856 434Q929 440 992 482L1050 352Q967 304 869 297Q853 296 838 296Q734 296 639 344Q533
398 475 494Q415 592 415 710Q415 902 545 1016Q665 1123 836 1123Q1006 1123 1126 1016Q1257 902 1257 710L1256 531V512Q1256 397 1279 374Q1283 371 1291 371H1295Q1346 374 1404 469Q1470 579 1470 716Q1470 977 1285 1162Q1102 1345 846 1345Q590 1345 405
1160Q222 977 222 716Q222 454 407 269Q590 87 845 87H846Q994 87 1135 160L1191 32Z" />
<glyph unicode="A" glyph-name="A" horiz-adv-x="1181" d="M954 877Q954 1053 845 1174Q734 1294 588 1294Q442 1294 331 1174Q222 1053 222 877V789H954V877ZM589 1432Q800 1432 953 1267Q1102 1109 1102 878V0H955V652H222V0H75V878Q75 1109 225 1267Q377 1432
589 1432Z" />
<glyph unicode="B" glyph-name="B" horiz-adv-x="1128" d="M606 137Q735 137 827 229Q921 324 921 437Q921 550 827 645Q735 737 606 737H303V874H658Q733 874 789 930Q844 985 844 1084Q844 1184 789 1239Q733 1295 658 1295H222V137H606ZM855 801Q1068 665 1068
437Q1068 269 933 134Q799 0 606 0H75V1432H658Q798 1432 894 1336Q991 1239 991 1084Q991 901 855 801Z" />
<glyph unicode="C" glyph-name="C" horiz-adv-x="1185" d="M1155 1138Q988 1293 757 1293Q515 1293 345 1125T174 717Q174 479 344 311T757 142Q988 142 1155 297V115Q980 0 757 0Q456 0 243 210T30 717Q30 1015 243 1225T757 1435Q980 1435 1155 1320V1138Z" />
<glyph unicode="D" glyph-name="D" horiz-adv-x="1262" d="M751 139T922 308T1094 717Q1094 957 923 1127Q752 1295 487 1295H222V137H484Q751 139 922 308ZM508 1432Q808 1432 1020 1223T1232 717Q1232 421 1020 212T508 0H75V1432H508Z" />
<glyph unicode="E" glyph-name="E" horiz-adv-x="1030" d="M222 665V554Q222 355 326 240Q417 142 633 142H990V5H633Q353 5 220 147Q75 299 75 554V883Q75 1138 220 1290Q353 1432 633 1432H990V1295H633Q417 1295 326 1197Q222 1082 222 883V812H784V665H222Z" />
<glyph unicode="F" glyph-name="F" horiz-adv-x="1016" d="M222 812H784V665H222V5H75V883Q75 1138 220 1290Q353 1432 533 1432H990V1295H533Q417 1295 326 1197Q222 1082 222 883V812Z" />
<glyph unicode="G" glyph-name="G" horiz-adv-x="1340" d="M757 137Q921 139 1041 257Q1163 381 1163 554V635H757V772H1310V554Q1310 326 1147 163Q986 2 757 0Q456 0 243 210T30 717Q30 1015 243 1225T757 1435Q980 1435 1155 1320V1138Q988 1293 757 1293Q515
1293 345 1125T174 717Q174 479 344 311T757 137Z" />
<glyph unicode="H" glyph-name="H" horiz-adv-x="1189" d="M962 1432H1109V0H962V678H222V0H75V1432H222V815H962V1432Z" />
<glyph unicode="I" glyph-name="I" horiz-adv-x="342" d="M95 1432H242V0H95V1432Z" />
<glyph unicode="J" glyph-name="J" horiz-adv-x="1037" d="M810 1432H957V549Q957 294 811 141Q679 0 488 0Q298 0 165 141Q20 294 20 549V618H167V549Q167 350 271 235Q362 137 488 137Q615 137 706 235Q810 350 810 549V1432Z" />
<glyph unicode="K" glyph-name="K" horiz-adv-x="1157" d="M864 841Q1077 705 1077 457V0H930V457Q930 590 837 683Q743 777 615 777H222V0H75V1432H222V914H666Q741 914 797 970Q852 1025 852 1104V1432H999V1104Q999 941 864 841Z" />
<glyph unicode="L" glyph-name="L" horiz-adv-x="999" d="M979 137V0H438Q288 0 181 106Q75 213 75 363V1432H222V379Q222 279 293 208Q364 137 464 137H979Z" />
<glyph unicode="M" glyph-name="M" horiz-adv-x="1842" d="M1303 1432Q1484 1432 1616 1290Q1762 1138 1762 883V0H1615V883Q1615 1082 1510 1197Q1420 1295 1303 1295Q1187 1295 1096 1197Q992 1082 992 883V5H845V883Q845 1082 741 1197Q650 1295 533 1295Q417
1295 326 1197Q222 1082 222 883V5H75V883Q75 1138 220 1290Q353 1432 533 1432Q646 1432 750 1368Q861 1301 918 1192Q976 1301 1086 1368Q1191 1432 1303 1432Z" />
<glyph unicode="N" glyph-name="N" horiz-adv-x="1280" d="M1199 363Q1199 350 1200 318V288Q1200 187 1182 132Q1142 18 1016 4Q995 0 974 0Q899 0 841 47Q785 91 758 170L478 1027Q469 1052 456 1094Q418 1215 389 1253Q356 1297 292 1297H290Q249 1290 234
1242Q222 1203 222 1107V0H75V1102Q75 1226 98 1291Q141 1412 272 1431L280 1432H294Q430 1432 505 1336Q551 1277 597 1133Q610 1090 617 1069L898 211Q923 138 976 138Q984 138 994 140Q1031 144 1043 173Q1054 202 1054 277Q1054 294 1053 314Q1052 347 1052
363V1432H1199V363Z" />
<glyph unicode="O" glyph-name="O" horiz-adv-x="1427" d="M996 1435T1196 1225T1397 717Q1397 420 1197 210T713 0Q430 0 230 210T30 717Q30 1015 230 1225T713 1435Q996 1435 1196 1225ZM713 1293Q486 1293 326 1125T165 717Q165 479 325 311T713 142Q940 142
1101 310T1262 717Q1262 956 1101 1124T713 1293Z" />
<glyph unicode="P" glyph-name="P" horiz-adv-x="1142" d="M295 641Q453 528 603 526Q758 526 870 638Q982 750 982 910Q982 1070 869 1184Q758 1295 603 1295Q448 1295 335 1182Q223 1070 223 910V0H76V910Q76 1125 230 1279Q383 1432 603 1432Q822 1432 975
1279Q1129 1125 1129 910Q1129 695 976 543Q822 389 603 389Q432 389 295 480V641Z" />
<glyph unicode="Q" glyph-name="Q" horiz-adv-x="1422" d="M1005 232Q999 246 991 261Q971 294 949 314L948 315Q912 347 849 361Q833 364 791 372L884 484Q910 477 931 468Q950 462 978 446Q1000 433 1013 422L1027 409Q1056 383 1086 333Q1102 303 1118 267Q1144
203 1180 170Q1209 144 1252 130Q1280 121 1321 113Q1326 112 1331 108L1240 0Q1238 0 1221 7Q1190 17 1166 29Q1136 46 1118 62L1103 76Q1088 89 1073 108Q913 0 711 0Q429 0 230 210T30 717Q30 1015 229 1225T711 1435Q993 1435 1192 1225T1392 717Q1392 420
1210 229Q1182 251 1168 283T1136 359Q1257 498 1257 717Q1257 956 1097 1124T711 1293Q484 1293 325 1125T165 717Q165 479 324 311T711 142Q876 142 1005 232Z" />
<glyph unicode="R" glyph-name="R" horiz-adv-x="1208" d="M1128 956Q1128 897 1100 821Q1044 672 908 595Q1009 531 1067 430Q1127 326 1127 206V0H980V206Q980 338 888 432Q797 524 670 526H314V663H610Q839 666 933 805Q981 879 981 956Q981 1107 874 1202Q769
1295 602 1295Q447 1295 334 1182Q222 1070 222 910V0H75V910Q75 1125 229 1279Q382 1432 602 1432Q832 1432 981 1295Q1128 1162 1128 956Z" />
<glyph unicode="S" glyph-name="S" horiz-adv-x="1170" d="M30 0V137H682Q806 137 900 206Q1003 280 1003 392Q1003 538 868 630Q772 696 511 781Q273 860 182 918Q30 1016 30 1169Q30 1338 164 1399Q235 1432 358 1432H991V1295H358Q231 1295 191 1255Q167 1232
167 1169Q167 1085 270 1024Q345 980 554 912Q831 821 945 743Q1140 608 1140 392Q1140 219 994 105Q859 0 682 0H30Z" />
<glyph unicode="T" glyph-name="T" horiz-adv-x="1060" d="M1030 1432V1295H604V0H457V1295H30V1432H1030Z" />
<glyph unicode="U" glyph-name="U" horiz-adv-x="1221" d="M994 1432H1141V554Q1141 323 992 165Q839 0 608 0Q378 0 225 165Q75 323 75 554V1432H222V554Q222 378 331 257Q442 137 608 137Q774 137 885 257Q994 378 994 554V1432Z" />
<glyph unicode="V" glyph-name="V" horiz-adv-x="1190" d="M162 1432L438 573Q552 216 574 186Q584 170 595 170Q605 170 616 186Q637 217 751 573L1027 1432H1180L891 533Q791 221 741 123Q677 0 595 0Q512 0 449 123Q398 221 298 533L10 1432H162Z" />
<glyph unicode="W" glyph-name="W" horiz-adv-x="1669" d="M1442 1432H1589V549Q1589 286 1458 135Q1342 0 1174 0Q998 0 880 148Q850 185 832 219Q781 118 685 57Q595 0 490 0Q322 0 206 135Q75 286 75 549V1432H222V549Q222 350 309 235Q385 137 490 137Q596
137 671 235Q758 350 758 549V1432H905V549Q905 350 993 235Q1068 137 1174 137Q1279 137 1355 235Q1442 350 1442 549V1432Z" />
<glyph unicode="X" glyph-name="X" horiz-adv-x="1134" d="M907 1432H1054V1274Q1054 1020 905 868Q863 824 806 791Q1054 643 1054 308V0H907V308Q907 507 796 622Q700 720 564 720Q429 720 333 622Q222 507 222 308V0H75V308Q75 644 324 791Q75 938 75 1274V1432H222V1274Q222
1075 333 960Q429 862 564 862Q700 862 796 960Q907 1075 907 1274V1432Z" />
<glyph unicode="Y" glyph-name="Y" horiz-adv-x="1195" d="M968 1432H1115V1176Q1115 938 986 792Q865 653 669 631V0H522V631Q325 653 204 792Q75 938 75 1176V1432H222V1176Q222 973 336 862Q437 764 595 764H596Q754 764 855 862Q968 973 968 1176V1432Z" />
<glyph unicode="Z" glyph-name="Z" horiz-adv-x="968" d="M936 137V0H231Q107 0 52 115Q30 161 30 204Q30 265 74 319L779 1190Q793 1207 793 1228Q793 1242 787 1257Q772 1295 737 1295H75V1432H737Q862 1432 917 1317Q938 1272 938 1229Q938 1168 894 1113L220
281Q196 251 191 237Q188 228 188 218Q188 202 196 183Q211 147 242 140Q253 137 307 137H936Z" />
<glyph unicode="[" glyph-name="bracketleft" horiz-adv-x="518" d="M222 -281H512L513 -418L75 -419V1436H512V1299H222V-281Z" />
<glyph unicode="\" glyph-name="backslash" horiz-adv-x="863" d="M691 -418L-6 1434H151L846 -418H691Z" />
<glyph unicode="]" glyph-name="bracketright" horiz-adv-x="518" d="M291 1299H1V1436H438V-419L0 -418L1 -281H291V1299Z" />
<glyph unicode="^" glyph-name="asciicircum" horiz-adv-x="1337" d="M76 841L667 1430L1257 841L1157 740L667 1229L177 740L76 841Z" />
<glyph unicode="_" glyph-name="underscore" horiz-adv-x="1123" d="M-140 -282H1292V-419H-140V-282Z" />
<glyph unicode="`" glyph-name="grave" horiz-adv-x="692" d="M152 1432L317 1456L523 1231L420 1167L152 1432Z" />
<glyph unicode="a" glyph-name="a" horiz-adv-x="1112" d="M137 717L136 716V717H137ZM541 1043Q732 1039 884 889Q1037 737 1037 546V0H904V94Q904 209 874 287Q843 367 766 452Q636 562 494 562Q385 562 300 503Q206 437 206 333Q206 236 304 177Q386 128 489
128Q621 128 727 200Q730 202 756 222L785 245Q829 195 836 112Q829 106 811 91Q702 2 528 0H519Q363 0 240 69Q168 109 118 180Q63 258 63 334Q63 492 205 601Q336 702 499 702Q743 702 899 462Q905 498 905 521Q905 659 812 774Q695 920 517 920Q407 920 310
859Q221 802 164 708L60 795Q242 1043 526 1043H541Z" />
<glyph unicode="b" glyph-name="b" horiz-adv-x="1178" d="M817 1043T970 891Q1123 739 1123 522Q1123 306 970 153Q817 0 602 0Q386 0 233 153Q80 306 80 522V1432H217V522Q217 363 330 250Q444 137 602 137Q761 137 873 250Q986 363 986 522Q986 680 873 794Q761
906 602 906Q474 906 308 796V956Q465 1043 602 1043Q817 1043 970 891Z" />
<glyph unicode="c" glyph-name="c" horiz-adv-x="848" d="M222 683T222 523Q222 364 334 250Q422 164 555 145Q597 140 813 140V4Q743 0 686 0Q576 0 499 15Q336 49 228 158Q75 309 75 523Q75 738 228 889Q339 1000 501 1029Q578 1043 813 1043V906Q596 906 556
901Q422 882 334 797Q222 683 222 523Z" />
<glyph unicode="d" glyph-name="d" horiz-adv-x="1188" d="M601 1043Q738 1043 895 956V796Q729 906 601 906Q442 906 330 794Q217 680 217 522Q217 363 330 250Q442 137 601 137Q759 137 873 250Q986 363 986 522V1432H1123V522Q1123 306 970 153Q817 0 601 0Q386
0 233 153Q80 306 80 522Q80 739 233 891Q386 1043 601 1043Z" />
<glyph unicode="e" glyph-name="e" horiz-adv-x="1110" d="M1021 127Q938 64 834 31Q738 0 607 0H583Q569 0 555 1Q414 7 298 82Q174 161 106 299Q60 407 60 518Q60 551 64 583Q82 725 170 850Q267 959 340 989Q452 1043 579 1043Q595 1043 612 1042Q755 1034
877 961Q991 889 1035 779Q1049 737 1050 696V692Q1050 632 1019 576Q968 474 813 414Q688 366 516 361H495Q413 361 328 381Q295 424 295 491Q295 505 296 519Q410 491 512 491Q714 491 869 601Q910 637 911 692Q911 751 859 802Q776 883 650 903Q613 909 579
909Q494 909 420 874Q310 822 251 724Q195 630 195 529Q195 335 358 208Q466 133 585 133Q601 132 617 132Q849 132 1021 282V127Z" />
<glyph unicode="f" glyph-name="f" horiz-adv-x="622" d="M617 1432V1295H543Q420 1295 330 1201Q228 1091 223 900H548V763H222V0H75V883Q75 1137 220 1290Q353 1432 543 1432H617Z" />
<glyph unicode="g" glyph-name="g" horiz-adv-x="1174" d="M275 -161Q389 -281 563 -281Q732 -281 845 -168Q957 -55 957 104V522Q957 680 845 794Q732 906 573 906Q414 906 301 794Q188 681 188 522Q188 363 301 250Q415 137 573 137Q755 145 888 266V103Q783
4 573 0Q357 0 204 153Q51 306 51 522Q51 738 204 891Q357 1043 573 1043Q788 1043 941 891Q1094 738 1094 522V104Q1094 -112 941 -265Q788 -418 563 -418Q397 -418 275 -339V-161Z" />
<glyph unicode="h" glyph-name="h" horiz-adv-x="1097" d="M222 942Q222 943 223 943Q355 1043 548 1043Q742 1043 874 943Q1022 830 1022 642V0H875V642Q875 769 773 841Q680 908 548 908Q417 908 324 841Q222 769 222 642V0H75V1432H222V942Z" />
<glyph unicode="i" glyph-name="i" horiz-adv-x="381" d="M115 1043H262V0H115V1043ZM230 1432T258 1405T286 1339Q286 1302 258 1275T188 1247Q145 1247 118 1274T90 1339Q90 1377 117 1404T188 1432Q230 1432 258 1405Z" />
<glyph unicode="j" glyph-name="j" horiz-adv-x="419" d="M-135 -281Q-3 -281 88 -183Q192 -68 192 131V1043H339V131Q339 -124 193 -277Q61 -418 -135 -418V-281ZM309 1432T337 1405T365 1339Q365 1302 337 1275T267 1247Q224 1247 197 1274T169 1339Q169 1377
196 1404T267 1432Q309 1432 337 1405Z" />
<glyph unicode="k" glyph-name="k" horiz-adv-x="997" d="M724 641Q937 505 937 257V0H790V257Q790 390 697 483Q603 577 475 577H222V0H75V1432H222V714H526Q601 714 657 770Q712 825 712 904V1043H859V904Q859 741 724 641Z" />
<glyph unicode="l" glyph-name="l" horiz-adv-x="342" d="M95 1432H242V0H95V1432Z" />
<glyph unicode="m" glyph-name="m" horiz-adv-x="1706" d="M1626 0H1479V636Q1479 725 1430 793Q1384 855 1310 885Q1255 907 1198 907Q1179 907 1159 904Q1077 893 1013 841Q924 768 924 636V0H778V636Q778 768 689 841Q625 892 543 903Q521 906 501 906Q445
906 391 885Q317 855 271 794Q222 725 222 636V0H75V636Q75 779 164 885Q246 985 380 1024Q445 1043 510 1043Q575 1043 639 1024Q775 982 850 872Q926 982 1062 1024Q1127 1043 1191 1043Q1256 1043 1321 1024Q1455 985 1537 885Q1626 779 1626 636V0Z" />
<glyph unicode="n" glyph-name="n" horiz-adv-x="1102" d="M1022 0H875V642Q875 769 773 841Q680 908 548 908Q417 908 324 841Q222 769 222 642V0H75V642Q75 830 223 943Q355 1043 548 1043Q742 1043 874 943Q1022 830 1022 642V0Z" />
<glyph unicode="o" glyph-name="o" horiz-adv-x="1168" d="M582 137Q737 137 848 248Q961 362 961 522Q961 682 849 794Q737 906 582 906Q427 906 315 796Q202 682 202 522Q202 362 314 250Q427 137 582 137ZM582 1043Q801 1043 955 889Q1108 737 1108 522Q1108
307 954 153Q801 0 582 0Q362 0 209 153Q55 307 55 522Q55 737 208 889Q362 1043 582 1043Z" />
<glyph unicode="p" glyph-name="p" horiz-adv-x="1188" d="M817 1043T970 891Q1123 738 1123 522Q1123 306 970 153Q817 0 602 0Q466 0 308 82V231Q495 137 596 137H602Q761 137 874 250Q986 363 986 522Q986 680 874 794Q761 906 602 906Q443 906 330 794Q217
681 217 522V-418H80V522Q80 738 233 891Q386 1043 602 1043Q817 1043 970 891Z" />
<glyph unicode="q" glyph-name="q" horiz-adv-x="1188" d="M586 1043Q802 1043 955 891Q1108 738 1108 522V-418H971V522Q971 681 858 794Q745 906 586 906Q427 906 314 794Q202 680 202 522Q202 363 314 250Q427 137 586 137H592Q693 137 880 231V82Q722 0 586
0Q371 0 218 153Q65 306 65 522Q65 738 218 891Q371 1043 586 1043Z" />
<glyph unicode="r" glyph-name="r" horiz-adv-x="626" d="M606 906Q447 906 335 796Q222 682 222 522V0H75V522Q75 737 228 889Q382 1043 606 1043V906Z" />
<glyph unicode="s" glyph-name="s" horiz-adv-x="883" d="M35 0V137H512Q590 137 651 180Q716 227 716 295Q716 387 626 447Q561 490 386 548Q216 603 149 647Q35 722 35 838Q35 1043 285 1043H771V906H285Q209 906 186 887Q172 875 172 838Q172 790 242 750Q293
722 429 678Q629 612 712 554Q853 456 853 295Q853 165 744 79Q643 0 512 0H35Z" />
<glyph unicode="t" glyph-name="t" horiz-adv-x="637" d="M222 420Q222 249 304 188Q371 137 543 137H617V0H543Q356 0 256 54Q75 149 75 420V1432H222V1043H548V906H222V420Z" />
<glyph unicode="u" glyph-name="u" horiz-adv-x="1062" d="M836 1043H983V403Q983 240 883 131Q791 32 648 6Q609 0 528 0Q448 0 407 6Q289 28 205 102Q75 215 75 403V1043H222V403Q222 273 307 199Q380 136 528 136Q678 136 751 199Q836 273 836 403V1043Z" />
<glyph unicode="v" glyph-name="v" horiz-adv-x="1063" d="M562 186T663 445L896 1043H1044L764 327Q643 21 552 2Q542 0 531 0Q519 0 509 2Q449 15 394 112Q352 186 274 385L15 1043H164L420 388Q501 184 517 165Q524 156 531 156Q539 156 547 166Q562 186 663 445Z" />
<glyph unicode="w" glyph-name="w" horiz-adv-x="1695" d="M1468 1043H1615V404Q1615 217 1484 105Q1364 0 1193 0Q1024 0 904 102Q867 135 845 166Q730 0 497 0Q327 0 208 102Q75 215 75 404V1043H222V404Q222 273 310 199Q385 137 497 137Q609 137 684 199Q772
273 772 404V1043H919V404Q919 273 1006 199Q1082 137 1193 137Q1305 137 1381 199Q1468 273 1468 404V1043Z" />
<glyph unicode="x" glyph-name="x" horiz-adv-x="1012" d="M785 1043H932V911Q932 688 748 574Q777 556 797 538Q932 425 932 236V0H785V236Q785 368 696 441Q618 503 504 503Q389 503 312 441Q222 368 222 236V0H75V236Q75 460 260 574Q75 687 75 911V1043H222V911Q222
810 277 741Q326 682 408 659Q453 645 501 645Q532 645 563 651Q645 664 699 710Q785 783 785 911V1043Z" />
<glyph unicode="y" glyph-name="y" horiz-adv-x="1058" d="M847 97Q764 27 648 6Q609 0 528 0Q448 0 407 6Q289 28 205 102Q75 215 75 403V1043H222V403Q222 273 307 199Q380 136 528 136Q678 136 751 199Q836 273 836 403V1043H983V83Q976 -119 830 -265Q677
-418 462 -418Q306 -418 184 -339V-181Q298 -291 462 -291Q621 -291 734 -178Q839 -72 846 83H847V97Z" />
<glyph unicode="z" glyph-name="z" horiz-adv-x="841" d="M810 137V0H208Q159 0 115 25Q72 49 48 88Q23 129 26 172Q30 219 68 259L636 851Q661 876 656 891Q651 906 619 906H29V1043H676Q719 1043 752 1014Q782 987 796 944Q810 902 803 859Q796 814 768 785L230
223Q184 175 191 156Q198 137 265 137H810Z" />
<glyph unicode="{" glyph-name="braceleft" horiz-adv-x="527" d="M418 1435H466V1293H405Q309 1293 286 1268Q263 1227 263 1124V902Q263 724 242 662Q235 634 222 603Q211 580 191 554Q160 515 148 510Q193 469 206 443Q229 407 243 354Q263 288 263 114V-110Q263
-208 284 -251Q300 -278 424 -278H507V-418H369Q283 -418 218 -380Q164 -348 141 -275Q120 -210 120 -111V137Q120 335 77 380Q54 404 43 409Q27 420 0 430V586Q5 588 25 598Q82 628 97 674Q120 731 120 879V1127Q120 1344 221 1397Q231 1404 252 1413Q302 1435
418 1435Z" />
<glyph unicode="|" glyph-name="bar" horiz-adv-x="342" d="M95 1432H242V-419H95V1432Z" />
<glyph unicode="}" glyph-name="braceright" horiz-adv-x="527" d="M220 1435T270 1413Q291 1404 301 1397Q402 1344 402 1127V879Q402 731 425 674Q440 628 497 598Q517 588 522 586V430Q495 420 479 409Q468 404 445 380Q402 335 402 137V-111Q402 -210 381
-275Q358 -348 304 -380Q239 -418 153 -418H15V-278H98Q222 -278 238 -251Q259 -208 259 -110V114Q259 288 279 354Q293 407 316 443Q329 469 374 510Q362 515 331 554Q311 580 300 603Q287 634 280 662Q259 724 259 902V1124Q259 1227 236 1268Q213 1293 117 1293H56V1435H104Q220
1435 270 1413Z" />
<glyph unicode="~" glyph-name="asciitilde" horiz-adv-x="1113" d="M341 759H368Q421 759 498 735Q542 719 591 696Q675 654 744 654Q798 654 858 679Q895 695 948 725Q954 729 963 729V571Q961 569 935 559Q893 541 856 532Q808 522 775 522H745Q693 522 616
545Q570 562 529 582Q497 597 463 610Q412 626 370 626H369Q301 626 219 581Q199 571 145 540V705Q180 721 211 732Q237 743 282 752Q317 759 341 759Z" />
</font>
</defs>
</svg>
