<svg width="25" height="25" viewBox="0 0 25 25" fill="none" xmlns="http://www.w3.org/2000/svg">
<g clip-path="url(#clip0_287_29)">
<path d="M27.2149 18.7978L15.3419 24.4749C15.2019 24.5326 15.0511 24.5624 14.8987 24.5624C14.7464 24.5624 14.5956 24.5326 14.4555 24.4749L2.58197 18.7978C2.34028 18.6818 2.34028 18.4914 2.58197 18.3748L5.42544 17.0179C5.56568 16.9602 5.71667 16.9304 5.86924 16.9304C6.02182 16.9304 6.1728 16.9602 6.31304 17.0179L14.4555 20.9063C14.5955 20.9643 14.7463 20.9942 14.8987 20.9942C15.0512 20.9942 15.202 20.9643 15.3419 20.9063L23.4844 17.0179C23.6246 16.9602 23.7755 16.9304 23.9279 16.9304C24.0804 16.9304 24.2313 16.9602 24.3714 17.0179L27.2149 18.3777C27.4596 18.4914 27.4596 18.6818 27.2149 18.7978ZM27.2149 10.8742L24.3714 9.51445C24.2313 9.45672 24.0804 9.42695 23.9279 9.42695C23.7755 9.42695 23.6246 9.45672 23.4844 9.51445L15.3419 13.4075C15.2018 13.4649 15.0511 13.4946 14.8987 13.4946C14.7464 13.4946 14.5956 13.4649 14.4555 13.4075L6.31304 9.51445C6.1728 9.45674 6.02182 9.42698 5.86924 9.42698C5.71667 9.42698 5.56568 9.45674 5.42544 9.51445L2.58197 10.8742C2.34028 10.9903 2.34028 11.1812 2.58197 11.2985L14.4555 16.9744C14.5956 17.0321 14.7464 17.0618 14.8987 17.0618C15.0511 17.0618 15.2019 17.0321 15.3419 16.9744L27.2149 11.2985C27.4596 11.1812 27.4596 10.9909 27.2149 10.8742ZM2.58197 4.27441L14.4549 9.51445C14.7398 9.62183 15.0564 9.62183 15.3413 9.51445L27.2149 4.27441C27.4566 4.16646 27.4566 3.99061 27.2149 3.88325L15.3413 -1.35622C15.0567 -1.46476 14.7396 -1.46476 14.4549 -1.35622L2.58197 3.88325C2.33726 3.99061 2.33726 4.16646 2.58197 4.27441Z" fill="white"/>
</g>
<defs>
<clipPath id="clip0_287_29">
<rect width="25" height="25" fill="white"/>
</clipPath>
</defs>
</svg>
