<svg width="168" height="168" viewBox="0 0 168 168" fill="none" xmlns="http://www.w3.org/2000/svg">
<path d="M168 84C168 130.392 130.392 168 84 168C37.608 168 0 130.392 0 84C0 37.608 37.608 0 84 0C130.392 0 168 37.608 168 84ZM74.2838 128.477L136.606 66.1547C138.723 64.0385 138.723 60.607 136.606 58.4908L128.942 50.8268C126.826 48.7102 123.395 48.7102 121.278 50.8268L70.4516 101.653L46.722 77.9232C44.6057 75.807 41.1742 75.807 39.0576 77.9232L31.3936 85.5872C29.2774 87.7035 29.2774 91.1349 31.3936 93.2512L66.6195 128.477C68.7361 130.594 72.1672 130.594 74.2838 128.477Z" fill="#2081F9"/>
</svg>
