<svg width="826" height="826" viewBox="0 0 1437 826" fill="none" xmlns="http://www.w3.org/2000/svg">
<rect x="693" width="660" height="480" fill="#F99820"/>
<rect x="684" y="16" width="652" height="473" fill="#2081F9"/>
<rect y="566" width="1437" height="260" fill="white"/>
<path d="M719.148 166.484C715.821 166.484 712.488 166.618 709.232 166.888L708.758 166.927C687.165 168.788 671.37 179.584 672.019 192.04L672.145 194.293C672.228 195.717 672.316 197.247 672.389 198.946C672.428 199.783 673.6 200.426 675.059 200.426H1206.21C1243.66 200.204 1280.98 199.925 1317.11 199.597C1323.89 199.611 1330.66 199.268 1337.4 198.572C1347.44 197.413 1354.41 195.117 1358.71 191.551H1358.71C1364.06 187.129 1364.22 181.56 1363.9 175.269C1363.24 162.565 1362.59 149.219 1361.94 135.914C1361.36 124.188 1360.79 112.493 1360.22 101.297C1359.86 94.6523 1359.07 88.7873 1353 84.3049C1346.43 79.4571 1334.43 77 1317.34 77C1317.14 77 1316.93 77 1316.72 77.0008C1263.18 77.1865 1210.13 95.1345 1184.71 121.662C1181.78 124.717 1179.05 127.987 1176.42 131.151C1172.52 135.823 1168.49 140.654 1163.68 144.975C1161.08 147.346 1158.26 149.485 1155.27 151.368C1155.06 151.507 1154.82 151.656 1154.57 151.797C1154 152.16 1153.41 152.51 1152.82 152.822C1149.41 154.742 1145.82 156.335 1142.09 157.577L1141.72 157.7C1141.44 157.799 1141.13 157.898 1140.82 157.988C1138.67 158.661 1136.43 159.243 1134.2 159.714C1124.51 161.796 1113.49 162.295 1101.45 161.196C1090.39 160.16 1079.48 157.992 1068.89 154.728C1057.74 151.294 1047.31 147.011 1037.22 142.871C1032.79 141.051 1028.2 139.17 1023.62 137.388C1022.76 137.052 1021.92 136.724 1021.06 136.396C1015.46 134.272 1010.39 132.517 1005.56 131.032C993.574 127.338 981.169 125.099 968.623 124.363C955.307 123.652 943.572 124.993 933.752 128.338C931.045 129.257 928.409 130.364 925.865 131.651C914.234 137.539 907.064 146.229 900.131 154.633C891.506 165.086 882.588 175.895 864.977 181.499C844.656 187.971 814.994 185.282 794.009 180.606C787.411 179.136 780.821 177.445 774.448 175.808C771.874 175.147 769.298 174.491 766.72 173.839C761.655 172.564 757.51 171.587 753.675 170.762L752.462 170.5C751.787 170.357 751.112 170.214 750.424 170.078C745.869 169.145 741.627 168.412 737.449 167.835L736.461 167.694C734.48 167.439 732.627 167.228 730.81 167.05L730.084 166.979C726.524 166.649 722.839 166.484 719.148 166.484Z" fill="#F2F2F2"/>
<path d="M1354 560.405H588V566H1354V560.405Z" fill="#85848B"/>
<path d="M1194.87 461.615C1194.87 465.919 1169.77 478.466 1139.96 478.466C1110.15 478.466 1086.92 465.919 1086.92 461.615C1086.92 457.311 1111.08 458.697 1140.92 458.697C1170.77 458.697 1194.87 457.304 1194.87 461.615Z" fill="#504F60"/>
<path opacity="0.2" d="M1194.87 461.615C1194.87 465.919 1169.77 478.466 1139.96 478.466C1110.15 478.466 1086.92 465.919 1086.92 461.615" fill="black"/>
<path d="M894.632 382.644C899.471 383.265 904.492 383.658 909.126 382.156C909.856 381.93 910.659 381.426 910.586 380.697C910.534 380.432 910.421 380.182 910.258 379.967C908.511 377.349 907.043 374.554 905.879 371.63C905.833 371.477 905.738 371.344 905.609 371.25C905.458 371.196 905.292 371.196 905.142 371.25C903.003 371.812 901.157 373.191 899.033 373.782C897.95 374.079 896.82 374.163 895.705 374.03C894.742 373.92 893.428 373.125 892.552 373.227C893.049 376.415 894.26 379.391 894.632 382.644Z" fill="#6C63FF"/>
<path d="M986.144 374.569C989.333 372.381 992.639 370.083 994.522 366.706C994.656 366.504 994.734 366.27 994.748 366.028C994.716 365.789 994.623 365.563 994.478 365.371C992.685 362.521 990.375 360.03 987.669 358.025C986.257 359.022 984.981 360.2 983.874 361.527C983.071 362.373 980.852 363.715 980.831 365.006C980.831 365.736 981.677 366.582 982.071 367.195C982.604 367.982 983.108 368.785 983.589 369.602C983.867 370.003 986.399 374.409 986.144 374.569Z" fill="#6C63FF"/>
<path d="M913.6 392.412C913.657 393.163 913.45 393.911 913.016 394.527C912.675 394.87 912.254 395.121 911.79 395.257C905.025 397.679 897.194 394.659 890.443 397.044C889.056 397.533 887.743 398.24 886.349 398.707C884.687 399.206 882.972 399.51 881.24 399.612C878.853 399.838 876.452 399.984 874.058 400.049C872.24 400.178 870.412 400.018 868.643 399.575C867.759 399.349 866.932 398.939 866.216 398.372C865.501 397.805 864.913 397.094 864.491 396.285C864.124 395.56 864.05 394.721 864.286 393.944C864.392 393.677 864.543 393.43 864.731 393.214C865.189 392.701 865.726 392.265 866.322 391.923L868.811 390.318C869.978 389.493 871.246 388.822 872.584 388.32C873.569 387.999 874.613 387.86 875.613 387.59C879.109 386.569 881.78 383.797 884.261 381.135L887.648 377.524C887.964 377.126 888.366 376.805 888.823 376.583C889.292 376.426 889.791 376.379 890.282 376.444C893.572 376.679 896.748 377.743 899.514 379.537C900.221 380.067 900.985 380.517 901.791 380.879C903.777 381.652 906.324 381.069 908.155 380.091C909.024 379.625 908.834 379.362 909.199 378.53C909.564 377.699 910.454 377.166 911.228 377.925C911.461 378.187 911.627 378.503 911.71 378.844C912.439 381.251 912.162 383.841 912.162 386.365C912.141 386.759 912.19 387.155 912.308 387.532C912.494 387.912 912.717 388.274 912.972 388.611C913.024 388.701 913.071 388.793 913.111 388.889C913.557 390.006 913.725 391.215 913.6 392.412V392.412Z" fill="#514E7F"/>
<path d="M913.6 392.412C913.657 393.163 913.45 393.911 913.016 394.527C912.675 394.87 912.254 395.121 911.79 395.257C905.025 397.679 897.194 394.659 890.443 397.044C889.056 397.533 887.742 398.24 886.349 398.707C884.687 399.206 882.972 399.51 881.24 399.612C878.853 399.838 876.452 399.984 874.058 400.049C872.24 400.178 870.412 400.018 868.643 399.575C867.759 399.349 866.932 398.939 866.216 398.372C865.501 397.805 864.913 397.094 864.491 396.285C864.124 395.56 864.05 394.721 864.286 393.944C864.392 393.677 864.543 393.43 864.731 393.214C865.126 394.039 865.41 395.133 865.658 395.527C865.993 396.11 866.449 396.616 866.996 397.01C867.542 397.403 868.166 397.676 868.826 397.81C869.813 397.87 870.804 397.744 871.745 397.438C877.875 395.921 884.393 395.899 890.282 393.601C892.304 392.806 894.231 391.748 896.354 391.267C898.478 390.785 900.733 390.916 902.923 390.734C906.382 390.457 909.732 389.414 913.14 388.867C913.58 389.993 913.738 391.21 913.6 392.412V392.412Z" fill="#464353"/>
<path d="M1001.64 374.124C1001.32 376.692 999.689 378.902 997.901 380.777C996.113 382.652 994.091 384.337 992.668 386.496C990.917 389.173 990.129 392.492 987.852 394.753C986.977 395.576 985.995 396.275 984.932 396.832C983.741 397.535 982.482 398.114 981.174 398.561C977.773 399.648 974.109 399.4 970.555 399.137C969.401 399.126 968.259 398.906 967.183 398.488C966.694 398.24 966.225 397.952 965.782 397.627C964.891 397.079 964.141 396.33 963.592 395.439C963.323 394.955 963.247 394.387 963.381 393.849C963.584 393.256 963.933 392.725 964.395 392.302C965.195 391.471 966.054 390.698 966.964 389.99C968.214 389.184 969.34 388.201 970.307 387.072C970.9 386.18 971.337 385.193 971.598 384.154C972.115 382.334 972.431 380.463 972.54 378.574C972.536 377.319 972.666 376.067 972.927 374.839C973.467 372.914 974.897 371.192 974.737 369.201C974.672 368.915 974.697 368.617 974.81 368.347C974.98 368.136 975.216 367.989 975.481 367.931C976.596 367.487 977.773 367.214 978.97 367.122C979.57 367.08 980.172 367.173 980.733 367.392C981.293 367.612 981.798 367.953 982.21 368.391C982.706 368.989 983.035 369.85 983.765 370.083C984.126 370.182 984.506 370.197 984.874 370.127C986.669 369.945 988.567 369.719 989.983 368.559C990.637 367.972 991.163 367.256 991.527 366.457C991.891 365.657 992.086 364.791 992.099 363.912C992.099 363.248 991.8 362.555 992.829 362.453C993.602 362.351 994.215 363.183 994.61 363.693C996.033 365.597 997.492 367.589 998.025 369.908C998.232 369.828 998.452 369.786 998.675 369.784C999.13 369.78 999.579 369.886 999.985 370.093C1000.39 370.3 1000.74 370.602 1001 370.973C1001.58 371.914 1001.81 373.032 1001.64 374.124Z" fill="#514E7F"/>
<path d="M1001.64 374.125C1001.32 376.692 999.689 378.903 997.901 380.777C996.113 382.652 994.091 384.337 992.668 386.496C990.917 389.173 990.128 392.492 987.851 394.753C986.977 395.576 985.995 396.275 984.932 396.832C983.741 397.535 982.482 398.114 981.174 398.561C977.773 399.648 974.109 399.4 970.555 399.138C969.401 399.126 968.258 398.906 967.183 398.488C966.693 398.24 966.225 397.952 965.782 397.628C964.891 397.079 964.141 396.33 963.592 395.439C964.276 395.11 965.023 394.931 965.782 394.914C967.358 395.002 968.511 396.49 970.022 396.949C972.175 397.598 974.321 396.081 976.503 395.563C977.926 395.228 979.422 395.315 980.831 394.834C982.004 394.38 983.089 393.723 984.034 392.893C985.33 391.967 986.484 390.856 987.457 389.596C988.266 388.336 988.939 386.994 989.464 385.592C990.617 382.905 991.973 380.31 993.522 377.83C993.751 377.438 994.028 377.075 994.347 376.751C994.69 376.437 995.077 376.218 995.463 375.941C996.923 374.839 997.529 373.023 998.04 371.243C998.178 370.702 998.371 370.177 998.616 369.675C999.071 369.671 999.521 369.777 999.926 369.984C1000.33 370.191 1000.68 370.493 1000.94 370.864C1001.57 371.827 1001.82 372.989 1001.64 374.125V374.125Z" fill="#464353"/>
<path d="M848.603 146.695C850.419 148.056 851.914 149.799 852.981 151.802C854.003 153.8 859.893 169.309 859.55 171.563C861.469 169.629 869.037 169.316 870.979 167.383C871.789 166.573 876.16 162.532 876.817 161.591C877.474 160.65 882.349 158.673 882.882 157.681C884.874 154.114 868.753 140.597 870.818 137.074C870.932 136.912 870.991 136.718 870.986 136.52C870.939 136.353 870.845 136.204 870.716 136.089C869.395 134.74 867.643 133.901 866.052 132.901C864.461 131.902 862.929 130.509 862.498 128.671C860.981 129.369 859.588 130.31 858.375 131.457C855.417 133.991 852.509 136.576 849.653 139.211C848.537 140.247 846.377 141.626 845.858 143.107C845.245 144.697 847.537 145.827 848.603 146.695Z" fill="#A1616A"/>
<path d="M874.701 140.955C872.227 142.616 869.916 144.506 867.797 146.601C865.797 148.577 863.9 150.868 863.418 153.632C863.214 154.719 863.243 155.821 863.075 156.922C862.345 161.7 858.214 165.202 856.39 169.673C855.861 171.053 855.473 172.483 855.229 173.94C854.717 176.704 854.436 179.505 854.39 182.315C854.346 185.035 857.018 186.91 857.995 189.449C858.973 191.987 859.236 194.599 859.732 197.203C860.667 202.119 862.382 206.861 864.111 211.573C867.709 221.508 879.372 248.972 882.97 258.915C893.997 256.15 923.351 249.796 933.115 243.968C936.37 242.028 910.528 220.137 914.009 218.627C914.208 218.596 914.397 218.519 914.561 218.403C914.725 218.286 914.86 218.133 914.955 217.955C915.05 217.778 915.102 217.581 915.108 217.379C915.113 217.178 915.072 216.978 914.987 216.796C911.506 201.579 900.617 189.077 895.676 174.261C893.961 169.119 890.881 164.727 888.546 159.84C886.429 155.412 885.298 150.518 882.765 146.309C882.288 145.442 881.663 144.664 880.919 144.011C880.287 143.527 879.605 143.114 878.883 142.778C877.438 142.078 876.095 141.662 874.701 140.955Z" fill="#514E7F"/>
<path d="M849.186 144.967C858.719 144.967 866.447 137.243 866.447 127.715C866.447 118.187 858.719 110.463 849.186 110.463C839.654 110.463 831.926 118.187 831.926 127.715C831.926 137.243 839.654 144.967 849.186 144.967Z" fill="#A1616A"/>
<path d="M866.746 135.819C867.606 135.026 868.687 134.512 869.845 134.346C871.003 134.179 872.185 134.367 873.234 134.886C874.402 135.491 875.424 136.716 875.161 138L883.722 138.132C885.084 138.094 886.446 138.219 887.779 138.504C889.121 138.796 890.319 139.546 891.166 140.626C891.268 140.765 891.385 140.933 891.56 140.955C891.702 140.957 891.841 140.91 891.954 140.823C893.271 140.163 894.754 139.909 896.216 140.094C900.843 140.393 905.12 142.705 908.747 145.594C909.401 146.043 909.909 146.675 910.207 147.41C910.506 148.38 910.148 149.599 910.936 150.292C910.936 158.316 913.695 165.814 915.534 173.634C915.863 175.027 917.198 176.26 918.125 177.354C919.27 178.567 920.205 179.963 920.891 181.483C922.453 185.539 920.3 190.309 921.818 194.38C922.46 196.101 923.701 197.516 924.737 199.012C926.103 200.739 926.967 202.808 927.233 204.993C927.299 205.971 927.175 206.956 927.233 207.911C927.331 209.225 927.576 210.525 927.963 211.785C928.586 214.138 929.238 216.49 929.919 218.838C931.028 222.632 932.473 226.724 935.874 228.744C927.664 230.138 919.008 231.502 911.185 228.65C910.093 228.277 909.057 227.76 908.105 227.11C905.28 225.097 903.916 221.654 902.697 218.401C901.339 214.753 899.96 211.041 899.683 207.16C899.685 205.926 899.511 204.697 899.165 203.513C898.369 201.397 896.245 200.121 894.319 198.946C892.143 197.755 890.172 196.223 888.48 194.409C887.641 193.495 886.998 192.419 886.591 191.247C886.184 190.076 886.022 188.833 886.115 187.596C886.261 186.392 886.736 185.232 886.78 184.022C886.823 182.811 886.283 181.425 885.123 181.104C879.146 179.295 876.292 172.219 874.964 166.121C874.391 162.969 874.134 159.768 874.198 156.565L874.117 150.343C873.292 149.593 872.629 148.683 872.167 147.668C871.705 146.654 871.455 145.556 871.432 144.441C871.511 143.791 871.498 143.133 871.395 142.486C871.106 141.696 870.636 140.984 870.023 140.408C868.703 139.054 867.598 137.507 866.746 135.819V135.819Z" fill="#464353"/>
<path d="M848.362 155.544C848.165 157.469 848.603 159.446 848.172 161.336C848.004 162.065 847.712 162.794 847.501 163.473C846.854 166.192 847.134 169.049 848.296 171.592C849.457 174.109 850.847 176.514 852.449 178.777C852.991 179.549 853.437 180.384 853.777 181.264C854.053 182.188 854.225 183.14 854.288 184.102C854.711 187.965 855.388 191.795 856.317 195.569C857.134 198.837 866.418 226.775 868.578 229.364C868.97 229.938 869.564 230.342 870.242 230.495C870.73 230.513 871.216 230.413 871.658 230.203L876.037 228.525C876.409 228.412 876.754 228.223 877.051 227.971C877.461 227.492 877.684 226.88 877.679 226.25C877.992 222.69 868.687 194.555 867.505 191.192C863.929 181.038 859.171 171.249 856.842 160.737C856.193 157.82 855.85 153.326 853.712 150.999C852.828 150.036 853.128 150.445 852.069 150.948C851.535 151.18 851.018 151.451 850.522 151.758C849.903 152.188 849.387 152.751 849.014 153.406C848.64 154.061 848.417 154.792 848.362 155.544Z" fill="#464353"/>
<path d="M861.652 174.809C862.827 181.016 864.038 187.209 865.242 193.417L882.379 188.931C882.517 187.136 881.561 185.473 880.919 183.825C879.357 179.907 879.321 175.545 878.058 171.519C877.102 168.455 875.438 165.639 874.54 162.554C874.022 160.759 873.759 158.906 873.249 157.09C872.701 155.306 872.028 153.564 871.234 151.875C870.272 149.425 869.018 147.101 867.498 144.952C865.308 145.769 862.973 146.717 861.725 148.694C861.085 149.808 860.719 151.058 860.659 152.341C860.36 156.186 861.754 160.052 861.294 163.874C860.821 167.514 860.941 171.207 861.652 174.809V174.809Z" fill="#6C63FF"/>
<path d="M882.663 257.383C883.626 261.03 882.232 264.867 881.094 268.478C879.38 273.916 878.211 279.512 877.605 285.182C877.531 286.625 877.241 288.049 876.744 289.406C876.204 290.624 875.285 291.652 874.657 292.812C872.935 295.861 872.978 299.582 873.351 303.068C873.599 305.366 873.971 307.657 874.431 309.918C874.993 312.683 875.686 315.571 874.876 318.27C876.233 317.971 877.153 319.729 877.065 321.108C876.978 322.486 876.533 324.026 877.197 325.215C878.875 325.827 878.89 328.132 878.839 329.92C878.867 333.018 879.259 336.103 880.007 339.111C882.546 351.317 885.242 363.489 888.093 375.627C894.26 377.538 901.463 379.53 907.345 376.882C908.44 376.393 909.535 375.613 909.783 374.431C909.847 373.794 909.767 373.151 909.55 372.549L906.762 362.409C906.083 359.958 905.404 357.427 905.762 354.911C906.032 353.036 906.849 351.015 905.93 349.36C905.616 348.791 905.12 348.346 904.755 347.806C903.295 345.668 904.061 342.809 904.178 340.219C904.224 339.638 904.184 339.053 904.061 338.483C903.861 337.818 903.582 337.178 903.229 336.579C900.925 332.109 899.819 327.118 900.018 322.093C900.105 321.451 900.017 320.798 899.763 320.203C899.586 319.958 899.427 319.699 899.288 319.43C899.179 318.962 899.234 318.47 899.442 318.037C898.605 317.402 897.85 316.667 897.194 315.848C897.599 315.597 897.941 315.257 898.195 314.854C898.449 314.45 898.608 313.995 898.66 313.521C898.712 313.048 898.656 312.569 898.495 312.12C898.335 311.671 898.074 311.265 897.734 310.932C898.031 310.872 898.307 310.731 898.529 310.524C898.751 310.317 898.911 310.053 898.992 309.76C899.073 309.468 899.071 309.159 898.987 308.867C898.903 308.576 898.739 308.313 898.515 308.109C898.157 307.861 897.683 307.751 897.427 307.379C897.033 306.84 897.354 306.088 897.675 305.512L899.376 302.441C900.646 300.158 900.93 297.335 902.295 295.147C904.251 291.959 905.528 288.406 906.791 284.89L911.702 271.344L915.009 274.211C916.11 275.052 917.033 276.103 917.723 277.304C918.194 278.491 918.491 279.739 918.607 281.01C919.818 288.363 924.445 294.738 926.16 301.982C926.54 303.594 926.795 305.286 927.722 306.665C928.054 307.088 928.351 307.537 928.612 308.007C928.854 308.724 928.98 309.475 928.985 310.232C929.138 311.713 929.608 313.145 930.363 314.428C931.119 315.712 932.142 316.818 933.363 317.672C934.991 318.788 937.012 319.554 937.896 321.319C938.072 321.866 938.317 322.388 938.625 322.873C939.414 323.821 941.114 323.931 941.45 325.12C941.64 325.784 941.289 326.579 941.661 327.162C941.873 327.432 942.153 327.641 942.471 327.768L947.223 330.138C952.536 332.794 955.251 338.892 959.17 343.334C960.523 344.781 961.722 346.365 962.746 348.061C964.439 351.088 965.22 354.889 968.081 356.815C968.85 357.213 969.55 357.733 970.153 358.354C971.051 359.535 970.723 361.191 970.803 362.679C970.883 364.167 972.022 365.94 973.438 365.488C972.941 367.29 972.941 369.193 973.438 370.995C979.653 370.676 985.581 368.276 990.267 364.182C991.654 362.971 992.989 361.425 993.004 359.586C993.025 359.269 992.954 358.953 992.8 358.675C992.519 358.316 992.149 358.036 991.727 357.865C987.282 355.458 985.947 349.877 983.699 345.348C981.736 341.35 978.831 337.907 976.401 334.194C971.117 326.207 967.512 316.541 959.52 311.267C957.761 310.108 955.718 309.079 954.835 307.161C954.346 306.088 954.287 304.863 953.9 303.754C953.514 302.645 952.587 301.566 951.404 301.566C952.061 299.961 951.93 298.006 951.974 296.27C952.019 295.499 951.93 294.727 951.711 293.987C951.407 293.19 951.013 292.432 950.536 291.725C948.451 288.197 947.408 284.15 947.529 280.054C947.588 277.946 947.96 275.772 947.325 273.759C947.004 272.745 946.442 271.819 946.055 270.841C945.472 269.07 945.164 267.22 945.143 265.356L944.705 258.346C944.639 256.011 944.335 253.689 943.8 251.416C942.34 245.974 940.881 223.179 935.881 220.611C930.882 218.043 922.292 235.587 916.665 235.929C914.176 236.033 911.716 236.508 909.367 237.337C905.623 238.738 902.485 241.349 899.427 243.902L889.078 252.59C886.889 254.392 885.079 256.113 882.663 257.383Z" fill="#464353"/>
<path d="M832.992 108.56C835.269 105.452 839.181 103.804 843.034 103.665C846.887 103.526 850.682 104.737 854.135 106.451C855.153 107.031 856.242 107.477 857.375 107.779C859.199 108.151 861.228 107.655 862.878 108.509C865.067 109.668 865.49 112.623 865.301 115.074C865.111 117.525 864.651 120.245 865.958 122.368C866.421 122.974 866.843 123.61 867.22 124.272C867.782 125.534 867.454 126.993 867.118 128.328C866.264 127.598 865.782 126.497 865.023 125.651C864.264 124.805 862.943 124.236 862.002 124.87C861.06 125.505 861.075 126.657 861.024 127.693C860.973 128.729 860.71 129.969 859.732 130.305C859.324 130.398 858.897 130.366 858.506 130.214C858.116 130.062 857.78 129.796 857.543 129.451C855.872 127.409 856.543 124.148 854.886 122.091C853.945 120.924 852.376 120.355 851.507 119.129C850.821 118.167 850.646 116.941 850.048 115.905C849.449 114.869 848.055 114.111 847.128 114.826C846.812 115.128 846.548 115.48 846.347 115.869C845.769 116.696 844.929 117.305 843.962 117.596C842.996 117.887 841.959 117.844 841.02 117.474C840.302 117.033 839.526 116.697 838.714 116.474C838.182 116.448 837.654 116.57 837.188 116.828C836.722 117.086 836.338 117.469 836.079 117.933C835.555 118.861 835.302 119.918 835.349 120.982C835.349 122.441 835.612 123.995 834.78 125.162C834.463 125.601 834.067 125.977 833.612 126.271C832.393 127.051 830.693 127.576 829.569 126.687C829.188 126.332 828.905 125.885 828.746 125.39C828.588 124.894 828.559 124.366 828.664 123.856C828.883 122.841 829.171 121.842 829.525 120.865C830.167 118.604 829.328 116.058 830.029 113.928C830.763 112.01 831.76 110.203 832.992 108.56V108.56Z" fill="#464353"/>
<path d="M842.239 160.023C842.129 160.554 842.185 161.107 842.399 161.605C842.616 161.945 842.912 162.228 843.26 162.43C845.715 163.958 848.506 164.862 851.391 165.063C851.783 165.07 852.168 165.17 852.515 165.355C853.201 165.807 853.244 166.814 852.989 167.616C852.648 168.373 852.472 169.193 852.471 170.023C852.682 171.548 854.492 172.212 856.018 172.438C858.156 172.708 860.499 172.569 862.192 171.234C863.339 170.189 864.213 168.879 864.739 167.419C868.928 157.798 870.395 147.162 874.635 137.57C874.957 136.944 875.171 136.268 875.27 135.571C875.315 135.222 875.266 134.868 875.127 134.545C874.988 134.221 874.766 133.941 874.482 133.733C873.694 133.244 872.468 133.521 871.935 132.756C871.672 132.369 871.701 131.844 871.468 131.435C870.979 130.567 869.694 130.706 868.819 130.202C868.133 129.838 867.658 129.086 866.892 128.941C866.516 128.919 866.14 128.986 865.794 129.135C865.448 129.285 865.142 129.513 864.9 129.801C862.411 132.121 861.104 135.411 859.718 138.518C857.6 143.281 855.122 147.876 852.303 152.261C852.631 151.751 850.727 147.884 849.982 147.717C848.676 147.454 847.004 149.745 846.297 150.598C844.075 153.29 842.667 156.559 842.239 160.023V160.023Z" fill="#6C63FF"/>
<path opacity="0.1" d="M868.753 130.881C868.228 130.89 867.713 131.016 867.244 131.251C866.776 131.486 866.366 131.823 866.045 132.238C865.264 133.252 865.111 134.594 864.914 135.885C864.25 139.975 862.789 143.896 860.615 147.425" fill="black"/>
<path opacity="0.1" d="M872.475 133.791C871.751 133.807 871.044 134.012 870.424 134.384C869.803 134.756 869.29 135.283 868.935 135.914C868.452 137.061 868.152 138.277 868.045 139.518C867.419 142.267 866.212 144.851 864.505 147.097" fill="black"/>
<path d="M1045.92 276.4V267.34C1045.92 260.67 1043.27 254.275 1038.55 249.56C1033.83 244.844 1027.43 242.196 1020.76 242.196H662.791C656.119 242.196 649.719 244.844 645 249.56C640.281 254.275 637.629 260.67 637.627 267.34V284.044L1045.92 276.4Z" fill="#33323D"/>
<path d="M762.375 231.575C762.375 231.575 761.353 294.935 772.592 315.783C783.831 336.631 788.648 427.324 788.648 427.324C788.648 427.324 906.47 439.505 988.574 412.734C1070.68 385.964 1245.38 375.014 1245.38 375.014L1215.94 176.683C1215.94 176.683 1070.5 167.361 987.756 206.802C905.017 246.244 762.375 231.575 762.375 231.575Z" fill="#8DD070"/>
<path opacity="0.1" d="M762.375 231.575C762.375 231.575 761.353 294.935 772.592 315.783C783.831 336.631 788.648 427.324 788.648 427.324C788.648 427.324 906.47 439.505 988.574 412.734C1070.68 385.964 1245.38 375.014 1245.38 375.014L1215.94 176.683C1215.94 176.683 1070.5 167.361 987.756 206.802C905.017 246.244 762.375 231.575 762.375 231.575Z" fill="black"/>
<path d="M788.451 254.72C788.451 254.72 784.766 307 794.012 323.705C803.259 340.409 803.69 414.981 803.69 414.981C803.69 414.981 909.725 419.898 985.151 394.236C1060.58 368.573 1219.08 351.927 1219.08 351.927L1201.07 189.733C1201.07 189.733 1069.92 188.384 993.376 224.506C916.833 260.629 788.451 254.72 788.451 254.72Z" fill="#8DD070"/>
<path opacity="0.1" d="M992.211 364.539C1007.3 362.661 1016.26 334.92 1012.23 302.578C1008.2 270.236 992.703 245.54 977.616 247.419C962.529 249.297 953.566 277.038 957.596 309.38C961.626 341.722 977.124 366.417 992.211 364.539Z" fill="black"/>
<path opacity="0.2" d="M1136.2 80.0671C1136.2 80.0671 994.902 115.81 928.269 178.726C861.637 241.641 721.367 271.432 721.367 271.432C721.367 271.432 739.846 332.042 756.938 348.44C774.03 364.839 806.449 449.689 806.449 449.689C806.449 449.689 922.321 425.135 992.238 374.453C1062.15 323.77 1225.1 259.761 1225.1 259.761L1136.2 80.0671Z" fill="black"/>
<path d="M719.243 262.358C719.243 262.358 737.714 322.975 754.792 339.373C771.87 355.771 804.303 440.614 804.303 440.614C804.303 440.614 920.19 416.068 990.114 365.386C1060.04 314.703 1222.97 250.716 1222.97 250.716L1134.07 71C1134.07 71 992.778 106.743 926.145 169.659C859.513 232.574 719.243 262.358 719.243 262.358Z" fill="#8DD070"/>
<path opacity="0.1" d="M719.243 262.358C719.243 262.358 737.714 322.975 754.792 339.373C771.87 355.771 804.303 440.614 804.303 440.614C804.303 440.614 920.19 416.068 990.114 365.386C1060.04 314.703 1222.97 250.716 1222.97 250.716L1134.07 71C1134.07 71 992.778 106.743 926.145 169.659C859.513 232.574 719.243 262.358 719.243 262.358Z" fill="black"/>
<path d="M751.143 276.392C751.143 276.392 763.689 327.286 777.621 340.343C791.553 353.401 814.841 424.231 814.841 424.231C814.841 424.231 917.264 396.38 981.174 348.82C1045.08 301.259 1190.84 236.87 1190.84 236.87L1123.91 87.9744C1123.91 87.9744 998.682 126.905 936.918 184.766C875.153 242.626 751.143 276.392 751.143 276.392Z" fill="#8DD070"/>
<path opacity="0.1" d="M978.811 318.415C992.593 312 992.607 282.848 978.842 253.303C965.077 223.757 942.745 205.006 928.962 211.421C915.18 217.836 915.166 246.988 928.931 276.533C942.696 306.079 965.028 324.83 978.811 318.415Z" fill="black"/>
<path opacity="0.1" d="M1055.59 285.292V536.953C1055.59 539.811 1055.02 542.641 1053.93 545.282C1052.83 547.922 1051.23 550.321 1049.21 552.342C1047.18 554.363 1044.78 555.965 1042.14 557.058C1039.5 558.152 1036.67 558.714 1033.81 558.713H659.413C653.64 558.711 648.104 556.417 644.023 552.337C639.942 548.256 637.649 542.723 637.649 536.953V259.921C648.378 263.904 648.378 263.904 659.413 263.568H1033.81C1039.58 263.568 1045.11 265.856 1049.19 269.928C1053.27 274.001 1055.57 279.526 1055.59 285.292V285.292Z" fill="black"/>
<path d="M1055.59 288.494V540.155C1055.58 545.927 1053.29 551.462 1049.2 555.542C1045.12 559.623 1039.58 561.915 1033.81 561.915H659.413C653.64 561.913 648.104 559.62 644.023 555.539C639.942 551.459 637.649 545.925 637.649 540.155V263.116C648.378 267.092 648.378 267.092 659.413 266.763H1033.81C1039.58 266.763 1045.11 269.052 1049.19 273.126C1053.28 277.2 1055.58 282.727 1055.59 288.494V288.494Z" fill="#504F60"/>
<path opacity="0.1" d="M1054.52 381.536V462.016H976.43C965.846 461.874 955.744 457.572 948.31 450.041C940.876 442.51 936.708 432.355 936.708 421.776C936.708 411.196 940.876 401.042 948.31 393.511C955.744 385.98 965.846 381.678 976.43 381.536H1054.52Z" fill="black"/>
<path d="M1055.59 379.391V459.886H977.495C966.911 459.744 956.809 455.442 949.375 447.911C941.941 440.38 937.773 430.226 937.773 419.646C937.773 409.067 941.941 398.913 949.375 391.381C956.809 383.85 966.911 379.548 977.495 379.406L1055.59 379.391Z" fill="#33323D"/>
<path opacity="0.1" d="M981.239 437.47C989.909 437.47 996.938 430.445 996.938 421.78C996.938 413.114 989.909 406.089 981.239 406.089C972.569 406.089 965.541 413.114 965.541 421.78C965.541 430.445 972.569 437.47 981.239 437.47Z" fill="black"/>
<path d="M982.305 435.34C990.975 435.34 998.003 428.315 998.003 419.65C998.003 410.984 990.975 403.959 982.305 403.959C973.635 403.959 966.606 410.984 966.606 419.65C966.606 428.315 973.635 435.34 982.305 435.34Z" fill="#6C63FF"/>
<path d="M1191.13 378.698C1191.75 385.416 1186.67 391.938 1188.15 398.517C1188.47 399.925 1189.08 401.253 1189.3 402.675C1189.91 406.585 1187.58 410.284 1185.35 413.552L1166.23 441.592C1165.47 442.824 1164.55 443.956 1163.5 444.962C1159.85 448.215 1154.37 447.88 1149.56 448.85C1146.19 449.535 1143 450.943 1140.22 452.978C1140.11 453.078 1140.03 453.218 1140.02 453.37C1140 453.521 1140.04 453.674 1140.13 453.795C1140.93 454.876 1141.98 455.74 1143.19 456.31C1144.41 456.879 1145.74 457.136 1147.08 457.056C1147.59 457.72 1147.08 458.69 1146.35 459.164C1145.32 459.894 1143.92 460.069 1143.71 461.805C1143.64 462.411 1143.76 463.024 1144.06 463.556C1144.83 464.735 1146.03 465.569 1147.4 465.883C1154.02 467.903 1161.18 464.351 1166.13 459.514C1171.09 454.678 1174.64 448.573 1179.5 443.649C1182.19 440.928 1185.25 438.594 1188.03 435.953C1193.56 430.686 1197.86 424.282 1202.01 417.87C1203.26 415.937 1204.51 413.953 1205.04 411.713C1205.56 409.474 1205.31 407.213 1205.91 405.046C1206.68 402.201 1208.76 399.94 1210.49 397.555C1213.88 392.886 1216.15 387.174 1215.7 381.426C1215.25 375.678 1211.69 369.996 1206.26 368.041C1204.57 367.365 1202.72 367.253 1200.97 367.72C1198.74 368.406 1197.1 370.244 1195.58 372.002L1191.93 376.196C1191.02 377.116 1190.3 378.207 1189.81 379.406C1189.58 380.008 1189.52 380.664 1189.65 381.297C1189.78 381.929 1190.09 382.511 1190.54 382.973" fill="#FBBEBE"/>
<path opacity="0.05" d="M1191.13 378.698C1191.75 385.416 1186.67 391.938 1188.15 398.517C1188.47 399.925 1189.08 401.253 1189.3 402.675C1189.91 406.585 1187.58 410.284 1185.35 413.552L1166.23 441.592C1165.47 442.824 1164.55 443.956 1163.5 444.962C1159.85 448.215 1154.37 447.88 1149.56 448.85C1146.19 449.535 1143 450.943 1140.22 452.978C1140.11 453.078 1140.03 453.218 1140.02 453.37C1140 453.521 1140.04 453.674 1140.13 453.795C1140.93 454.876 1141.98 455.74 1143.19 456.31C1144.41 456.879 1145.74 457.136 1147.08 457.056C1147.59 457.72 1147.08 458.69 1146.35 459.164C1145.32 459.894 1143.92 460.069 1143.71 461.805C1143.64 462.411 1143.76 463.024 1144.06 463.556C1144.83 464.735 1146.03 465.569 1147.4 465.883C1154.02 467.903 1161.18 464.351 1166.13 459.514C1171.09 454.678 1174.64 448.573 1179.5 443.649C1182.19 440.928 1185.25 438.594 1188.03 435.953C1193.56 430.686 1197.86 424.282 1202.01 417.87C1203.26 415.937 1204.51 413.953 1205.04 411.713C1205.56 409.474 1205.31 407.213 1205.91 405.046C1206.68 402.201 1208.76 399.94 1210.49 397.555C1213.88 392.886 1216.15 387.174 1215.7 381.426C1215.25 375.678 1211.69 369.996 1206.26 368.041C1204.57 367.365 1202.72 367.253 1200.97 367.72C1198.74 368.406 1197.1 370.244 1195.58 372.002L1191.93 376.196C1191.02 377.116 1190.3 378.207 1189.81 379.406C1189.58 380.008 1189.52 380.664 1189.65 381.297C1189.78 381.929 1190.09 382.511 1190.54 382.973" fill="black"/>
<path d="M1205.61 551.652C1201.43 554.197 1196.23 554.351 1191.38 553.76C1190.59 553.665 1189.67 553.607 1189.19 554.212C1188.46 555.087 1189.32 556.4 1190.21 557.079C1193.07 559.227 1196.43 560.61 1199.98 561.098C1203.15 561.547 1206.34 561.759 1209.54 561.733C1218.3 561.886 1227.06 562.032 1235.67 560.777C1236.19 560.739 1236.68 560.595 1237.13 560.354C1237.69 559.964 1238.08 559.377 1238.21 558.713C1238.81 556.466 1237.67 554.059 1235.95 552.498C1234.22 550.937 1232.01 550.069 1229.85 549.23L1222.26 546.276C1220.48 545.583 1217.63 543.744 1215.69 543.89C1212.06 544.153 1208.62 549.886 1205.61 551.652Z" fill="#3F3D56"/>
<path opacity="0.05" d="M1205.61 551.652C1201.43 554.197 1196.23 554.351 1191.38 553.76C1190.59 553.665 1189.67 553.607 1189.19 554.212C1188.46 555.087 1189.32 556.4 1190.21 557.079C1193.07 559.227 1196.43 560.61 1199.98 561.098C1203.15 561.547 1206.34 561.759 1209.54 561.733C1218.3 561.886 1227.06 562.032 1235.67 560.777C1236.19 560.739 1236.68 560.595 1237.13 560.354C1237.69 559.964 1238.08 559.377 1238.21 558.713C1238.81 556.466 1237.67 554.059 1235.95 552.498C1234.22 550.937 1232.01 550.069 1229.85 549.23L1222.26 546.276C1220.48 545.583 1217.63 543.744 1215.69 543.89C1212.06 544.153 1208.62 549.886 1205.61 551.652Z" fill="black"/>
<path d="M1210.93 450.943C1207.77 455.145 1204.5 459.996 1205.28 465.197C1205.7 467.998 1207.27 470.471 1208.42 473.06C1209.99 476.576 1210.8 480.355 1211.61 484.119C1212.79 489.619 1213.98 495.134 1214.7 500.721C1215.52 507.031 1211.65 525.289 1211.29 531.643C1211.2 533.175 1211.02 534.83 1209.96 535.932C1209.54 536.37 1208.99 536.72 1208.8 537.289C1208.68 537.837 1208.78 538.407 1209.05 538.893C1210.83 542.905 1214.47 545.896 1218.54 547.603C1222.6 549.31 1232.41 552.257 1236.84 552.41C1237.42 552.475 1238.01 552.397 1238.56 552.184C1239.15 551.825 1239.61 551.292 1239.89 550.66C1243.06 544.59 1240.01 523.013 1240.05 516.164C1240.1 510.452 1241.45 504.777 1241.2 499.073C1241 494.492 1239.74 490.013 1239.32 485.446C1238.59 477.962 1239.97 470.442 1241.35 463.045C1242.4 457.37 1243.45 451.695 1244.8 446.092C1245.63 442.671 1246.59 439.221 1248.45 436.252C1249.91 433.896 1251.96 431.926 1253.66 429.687C1258.38 423.502 1260.48 415.71 1259.5 407.993C1259.4 407.264 1248.56 410.743 1247.6 411.159C1243.7 412.81 1240.11 415.117 1236.99 417.979C1234.48 420.372 1232.5 423.567 1230.3 426.244C1227.19 430.032 1224.12 433.847 1221.09 437.689C1217.63 442.08 1214.25 446.498 1210.93 450.943Z" fill="#464353"/>
<path opacity="0.05" d="M1210.93 450.688C1207.77 454.89 1204.5 459.748 1205.28 464.941C1205.7 467.75 1207.27 470.223 1208.42 472.812C1209.99 476.321 1210.8 480.107 1211.61 483.863C1212.79 489.371 1213.98 494.885 1214.7 500.466C1215.52 506.783 1211.65 525.034 1211.29 531.387C1211.2 532.919 1211.02 534.582 1209.96 535.684C1209.54 536.114 1208.99 536.464 1208.8 537.033C1208.68 537.581 1208.77 538.152 1209.05 538.638C1210.83 542.657 1214.47 545.641 1218.54 547.392C1222.6 549.142 1232.41 550.667 1236.84 550.813C1237.42 550.877 1238.01 550.799 1238.56 550.587C1239.15 550.232 1239.61 549.701 1239.89 549.069C1243.06 543 1240.01 522.809 1240.05 515.952C1240.1 510.233 1241.45 504.565 1241.2 498.854C1241 494.273 1239.74 489.794 1239.32 485.235C1238.59 477.743 1239.97 470.223 1241.35 462.826C1242.4 457.158 1243.45 451.483 1244.8 445.874C1245.63 442.452 1246.59 439.002 1248.45 436.033C1249.91 433.677 1251.96 431.708 1253.66 429.468C1258.39 423.284 1260.48 415.491 1259.5 407.774C1259.4 407.045 1248.56 410.524 1247.6 410.94C1243.7 412.596 1240.11 414.905 1236.99 417.768C1234.48 420.153 1232.5 423.348 1230.3 426.025C1227.19 429.813 1224.12 433.631 1221.09 437.477C1217.63 441.835 1214.25 446.238 1210.93 450.688Z" fill="black"/>
<path d="M1175.76 358.405C1185.55 358.405 1193.48 350.479 1193.48 340.701C1193.48 330.923 1185.55 322.997 1175.76 322.997C1165.98 322.997 1158.05 330.923 1158.05 340.701C1158.05 350.479 1165.98 358.405 1175.76 358.405Z" fill="#FBBEBE"/>
<path d="M1191.72 339.957C1193.35 342.566 1195.5 344.819 1198.03 346.581C1200.55 348.343 1203.41 349.578 1206.42 350.213L1205.09 355.064C1202.78 363.394 1200.19 372.206 1193.75 377.983C1194.48 375.16 1193.55 372.148 1191.96 369.697C1190.37 367.246 1188.13 365.32 1185.95 363.416L1175.75 354.59C1175.46 354.35 1175.21 354.058 1175.02 353.729C1174.77 353.107 1174.77 352.411 1175.02 351.789C1176.32 347.747 1180.03 345.223 1183.05 342.495C1184.56 341.085 1185.92 339.509 1187.08 337.798C1189.12 334.894 1190.38 337.812 1191.72 339.957Z" fill="#FBBEBE"/>
<path d="M1152.43 322.902L1152.03 319.576C1154.83 320.305 1157.48 317.927 1159.27 315.469C1161.06 313.011 1162.72 310.115 1165.44 309.086C1168.74 307.846 1172.25 309.816 1175.41 311.479C1178.94 313.441 1182.83 314.704 1186.84 315.199C1187.48 315.22 1188.12 315.323 1188.73 315.506C1190.79 316.235 1191.77 318.817 1192.07 321.159C1192.37 323.5 1192.29 325.988 1193.3 328.074C1194.03 329.657 1195.39 330.831 1196.22 332.392C1198.41 336.58 1196.29 342.306 1198.58 346.413L1192.9 341.212C1192.38 340.737 1191.65 340.241 1191.08 340.643C1190.62 340.964 1190.59 341.657 1190.4 342.211C1189.86 343.83 1187.83 344.312 1186.36 343.67C1184.89 343.028 1183.82 341.635 1182.71 340.365C1180.2 337.404 1177.21 334.8 1173.71 333.538C1172.17 332.964 1170.53 332.723 1168.89 332.831C1167.26 332.939 1165.67 333.394 1164.22 334.165C1161.57 335.66 1159.63 339.147 1156.38 339.271C1151.93 339.439 1150.07 331.152 1148.02 327.877C1148.77 327.311 1149.3 326.498 1149.51 325.58C1149.73 324.662 1149.61 323.699 1149.18 322.858C1149.48 322.734 1152.37 322.392 1152.43 322.902Z" fill="#464353"/>
<path d="M933.349 219.4C931.926 220.665 930.61 222.046 929.415 223.529C928.212 225.032 927.572 226.907 927.605 228.832C927.612 229.39 927.79 229.933 928.116 230.386C928.283 230.602 928.513 230.762 928.775 230.842C929.036 230.921 929.316 230.918 929.576 230.831C929.869 230.681 930.12 230.46 930.306 230.189C931.077 229.262 931.895 228.376 932.758 227.533C933.072 227.22 933.488 226.892 933.911 227.008C934.101 227.076 934.271 227.188 934.407 227.336C934.898 227.761 935.256 228.318 935.436 228.941C935.692 230.057 935.042 231.173 934.305 232.049C933.568 232.924 932.699 233.763 932.4 234.864C932.287 235.155 932.287 235.478 932.4 235.769C932.541 235.979 932.738 236.146 932.969 236.25C934.015 236.826 935.173 237.164 936.364 237.242C937.554 237.32 938.747 237.136 939.859 236.703C941.318 236.112 942.618 235.098 944.121 234.573C944.772 234.395 945.403 234.15 946.004 233.843C946.434 233.557 946.803 233.189 947.09 232.759C947.377 232.33 947.576 231.848 947.675 231.341C947.865 230.329 947.902 229.294 947.785 228.27C947.603 224.307 946.754 220.404 945.274 216.723C945.188 216.486 945.043 216.274 944.851 216.11C944.631 215.976 944.378 215.908 944.121 215.913C942.253 215.716 939.187 214.761 937.385 215.454C936.754 215.799 936.21 216.283 935.794 216.869C935.458 217.241 933.349 218.911 933.349 219.4Z" fill="#A1616A"/>
<path d="M932.758 217.751C932.758 215.972 930.568 211.675 934.049 211.391C934.049 209.487 931.356 208.305 931.86 206.284C932.021 205.613 932.59 205.066 932.656 204.381C932.874 202.433 929.357 201.375 929.941 199.508C930.16 198.778 930.933 198.355 931.101 197.633C931.495 195.948 928.481 195.197 928.423 193.468C928.423 192.884 928.751 192.337 928.722 191.754C928.722 191.024 928.087 190.47 927.737 189.835C926.824 188.209 927.269 185.692 925.605 184.853C926.708 184.948 927.065 183.314 926.613 182.315C926.16 181.315 925.233 180.447 925.226 179.338C925.281 178.937 925.281 178.529 925.226 178.128C924.92 177.063 923.175 176.975 922.883 175.939C922.846 175.542 922.833 175.142 922.847 174.743C922.73 173.919 921.883 173.393 921.088 173.16C920.262 173.02 919.466 172.736 918.738 172.321C918.227 171.935 917.636 171.293 917.089 171.592C916.884 171.716 916.782 171.949 916.629 172.124C915.972 172.89 914.717 172.555 913.892 171.993C911.454 170.337 910.243 167.368 909.725 164.472C909.207 161.576 909.221 158.585 908.572 155.719C908.374 154.825 908.11 153.948 907.783 153.093C907.506 152.363 906.616 151.218 906.557 150.481C906.426 148.804 909.9 149.949 911.221 150.117C912.503 150.242 913.771 150.486 915.009 150.846C916.329 151.345 917.623 151.912 918.884 152.546C924.153 154.873 930.517 155.157 934.75 159.067C936.144 160.351 937.319 162.036 939.129 162.619C939.959 162.778 940.778 162.99 941.581 163.254C943.588 164.195 943.902 166.858 944.997 168.783C945.341 169.292 945.641 169.829 945.894 170.388C946.105 171.048 946.204 171.738 946.186 172.431L946.34 177.486C946.588 185.955 946.836 194.445 945.931 202.863C945.639 205.643 945.201 208.502 946.026 211.172C946.245 211.901 946.551 212.587 946.756 213.324C946.936 214.188 947.029 215.067 947.033 215.95L947.15 219.225C947.19 219.48 947.133 219.74 946.989 219.954C946.867 220.053 946.724 220.124 946.572 220.16C946.419 220.197 946.26 220.199 946.106 220.166C941.545 219.757 936.932 217.19 932.626 218.744" fill="#464353"/>
<path d="M1140.92 469.413C1170.73 469.413 1194.89 465.922 1194.89 461.615C1194.89 457.308 1170.73 453.817 1140.92 453.817C1111.1 453.817 1086.94 457.308 1086.94 461.615C1086.94 465.922 1111.1 469.413 1140.92 469.413Z" fill="#504F60"/>
<path d="M1187.35 461.994C1186.41 457.931 1185.81 454.364 1185.81 454.364C1185.81 454.364 1186.03 449.944 1184.05 446.625V445.516V437.346C1184.61 435.863 1185.3 434.43 1186.11 433.064C1187.57 430.497 1186.11 421.087 1186.11 421.087C1186.11 421.087 1180.66 407.818 1181.98 399.4C1183.3 390.982 1170.79 362.023 1170.79 362.023C1170.86 359.23 1171.26 356.455 1171.96 353.751C1172.1 353.182 1172.15 352.598 1172.12 352.015C1172.12 351.942 1172.12 351.876 1172.12 351.803C1172.12 351.73 1172.12 351.847 1172.12 351.869C1171.93 346.318 1167.54 335.916 1167.54 335.916L1168.13 316.089C1168.13 316.089 1170.93 304.418 1166.36 288.698C1164.77 283.22 1163.74 278.836 1163.1 275.451C1163.02 275.072 1162.95 274.722 1162.89 274.35C1172.3 272.891 1179.49 271.724 1179.49 271.724C1179.49 271.724 1174.03 248.899 1170.34 244.902C1166.66 240.904 1163.71 228.35 1163.71 228.35C1163.71 228.35 1161.79 212.237 1164.89 207.525C1167.99 202.812 1168.43 194.686 1168.43 194.686C1168.43 194.686 1175.5 189.58 1176.39 187.268C1177.28 184.955 1178.75 179.849 1178.75 177.143C1178.75 174.437 1177.87 172.037 1178.16 170.578C1178.45 169.119 1176.09 163.728 1177.28 161.16C1177.58 160.372 1177.74 159.534 1177.74 158.688C1177.75 158.663 1177.75 158.639 1177.74 158.615C1177.74 158.615 1177.74 158.615 1177.74 158.615C1177.75 156.368 1177.55 154.125 1177.12 151.918C1175.08 150.192 1172.69 148.917 1170.12 148.176L1169.96 147.563L1169.56 145.959C1169.34 145.811 1169.11 145.674 1168.87 145.55V144.967L1168.8 142.647L1169.91 137.439C1172.1 128.379 1159.99 127.029 1159.99 127.029C1159.26 125.64 1158.04 124.57 1156.56 124.024C1154.13 123.171 1156.16 137.65 1157.29 138.613C1158.15 139.342 1160.79 143.851 1162.07 146.083L1162.27 146.447C1162.07 146.627 1161.88 146.822 1161.72 147.031L1162.18 150.175L1162.25 150.656C1161.45 151.652 1160.79 152.761 1160.31 153.946C1160.31 153.946 1162.5 156.368 1162.09 159.052C1161.67 161.737 1162.77 165.143 1162.82 165.326C1162.69 165.172 1161.13 163.495 1159.58 163.903C1158.02 164.312 1153.68 165.617 1153.68 165.617C1153.68 165.617 1150.44 166.186 1150.76 166.901C1151.08 167.616 1148.57 170.753 1148.57 170.753L1139.86 162.495C1139.77 162.247 1139.68 161.999 1139.6 161.766C1139.25 160.575 1139 159.354 1138.87 158.119C1139.82 157.893 1140.75 157.598 1141.66 157.236C1142.58 156.922 1143.4 156.391 1144.07 155.69C1144.95 154.646 1145.12 153.231 1145.48 151.933C1146.16 149.394 1147.67 147.14 1148.71 144.726C1150.48 140.646 1151.05 136.148 1150.35 131.756C1150.22 130.403 1149.76 129.102 1149.02 127.963C1147.59 126.008 1145.01 125.213 1143.13 123.652C1141.26 122.091 1140.05 119.706 1137.86 118.546C1135.88 117.488 1133.48 117.612 1131.25 117.977C1126.88 118.696 1122.69 120.219 1118.89 122.47C1117.62 123.2 1116.22 124.097 1114.76 123.827C1113.5 123.601 1112.57 122.602 1111.78 121.639C1111.79 121.599 1111.8 121.56 1111.82 121.522C1111.78 121.486 1111.75 121.447 1111.72 121.405C1110.8 123.454 1110.34 125.68 1110.37 127.927C1110.37 128.277 1110.37 128.656 1110.41 128.97V129.334C1110.41 129.437 1110.41 129.539 1110.41 129.633C1110.41 129.789 1110.39 129.944 1110.34 130.093C1110.16 130.539 1109.88 130.94 1109.53 131.267C1109.26 131.572 1109.01 131.896 1108.8 132.238C1108.8 132.121 1108.87 132.004 1108.91 131.88C1108.36 132.692 1108.04 133.646 1108.01 134.63C1107.97 135.346 1108.2 136.051 1108.67 136.6C1109.1 137.024 1109.58 137.405 1110.09 137.738C1109.92 138.701 1109.83 139.677 1109.83 140.656C1109.84 143.556 1110.61 146.404 1112.05 148.922C1113.49 151.441 1115.55 153.546 1118.04 155.033C1118.15 155.274 1118.24 155.522 1118.34 155.762C1119.45 158.68 1120.29 162.109 1119.92 165.245C1119.92 165.472 1119.85 165.705 1119.82 165.931C1119.78 166.157 1119.6 166.172 1119.5 166.296C1119.5 166.296 1105.1 166.442 1101.72 163.378C1098.33 160.314 1093.16 170.869 1093.16 170.869C1093.16 170.869 1088 171.869 1086.97 170.869C1085.93 169.87 1079.9 170.731 1079.9 170.731C1077.42 168.533 1074.21 167.359 1070.9 167.448C1068.89 165.926 1066.68 164.698 1064.33 163.801V163.801L1064.17 163.743C1063.13 163.364 1062.02 163.225 1060.92 163.334C1060.92 163.334 1053.84 157.499 1051.78 154.347C1049.71 151.196 1039.88 139.561 1039.84 139.51V138.949L1039.73 137.256C1039.43 137.302 1039.14 137.326 1038.84 137.329C1038.79 137.161 1038.72 136.964 1038.65 136.738C1038.08 135.088 1037.38 133.485 1036.56 131.946C1036.56 131.946 1036.56 129.809 1037.18 129.269C1037.8 128.729 1036.92 120.887 1036.92 120.887C1036.92 120.887 1030.55 105.985 1024.83 117.109C1024.83 117.109 1014.03 124.308 1023.09 132.697C1023.09 132.697 1026.74 134.448 1027.23 135.834C1027.56 136.731 1028.79 139.248 1029.61 140.94L1029.98 141.669L1029.88 141.757L1030.01 143.158L1030.07 143.697C1028.36 144.668 1027.2 145.63 1027.49 146.353C1027.99 147.588 1028.34 148.882 1028.52 150.204C1028.52 150.204 1041.06 165.902 1042.68 172.606C1042.68 172.606 1076.3 192.578 1087.35 194L1085.4 203.957C1085.11 206.659 1084.97 209.374 1084.96 212.091C1085.11 214.228 1083.63 223.93 1083.63 223.93C1083.63 223.93 1081.71 238.198 1080.09 240.197C1078.47 242.195 1078.76 250.752 1078.76 250.752C1078.38 254.848 1077.65 258.904 1076.58 262.875C1074.96 268.295 1076.13 275.006 1076.13 275.006C1076.13 275.006 1070.53 287.845 1083.95 279.142C1083.95 279.142 1090.51 278.734 1098.12 278.471C1098.12 278.719 1098.12 278.975 1098.12 279.201C1098.12 280.178 1098.12 281.236 1098.07 282.345C1097.97 289.697 1097.92 299.851 1098.26 307.496C1098.85 321.049 1102.98 347.871 1102.98 347.871V361.374C1102.71 362.64 1102.58 363.931 1102.59 365.225C1102.5 369.976 1103.76 374.653 1106.24 378.713L1107.27 387.7C1107.27 387.7 1109.69 393.623 1109.74 397.182C1109.73 397.469 1109.69 397.755 1109.64 398.036C1109.54 398.489 1109.5 398.952 1109.52 399.415C1109.38 403.5 1111.84 413.274 1111.84 413.274C1111.84 413.274 1111.99 423.115 1113.46 423.691C1114.72 424.18 1111.77 429.359 1110.9 430.847C1110.88 430.756 1110.86 430.663 1110.85 430.57L1110.67 430.861C1110.36 431.658 1110.2 432.503 1110.21 433.356C1110.12 434.028 1110.23 434.71 1110.52 435.322C1110.81 435.934 1111.27 436.451 1111.84 436.814C1114.64 438.528 1116.15 439.95 1113.77 440.519C1112.89 440.655 1112.02 440.838 1111.17 441.066C1111.17 440.957 1111.08 440.84 1111.04 440.738C1110.71 440.869 1110.43 441.112 1110.25 441.426C1110.08 441.74 1110.01 442.105 1110.07 442.46C1110.1 443.617 1110.39 444.752 1110.94 445.771C1113.3 451.053 1114.93 453.066 1114.93 453.066L1116.07 452.942C1115.9 453.374 1115.68 453.783 1115.41 454.16C1114.98 454.772 1114.41 455.272 1113.74 455.619C1113.13 455.989 1112.44 456.225 1111.72 456.312C1110.92 456.338 1110.14 456.532 1109.42 456.881C1108.7 457.231 1108.06 457.728 1107.55 458.34C1106.09 460.244 1105.15 462.833 1108.06 465.109L1118.61 468.756C1118.61 468.756 1136.75 471.113 1135.79 467.042C1134.82 462.972 1134.24 459.412 1134.24 459.412C1134.32 456.927 1133.82 454.458 1132.78 452.198C1132.59 451.829 1132.37 451.473 1132.14 451.133L1132.78 451.067C1132.78 451.067 1134.11 442.073 1135.87 440.366C1136.28 439.972 1136.38 439.637 1136.28 439.432C1136.46 438.944 1136 438.659 1135.41 438.491L1135.27 438.849C1134.7 438.723 1134.11 438.657 1133.52 438.652C1133.52 438.652 1132.92 433.947 1134.84 432.233C1135 432.037 1135.11 431.812 1135.18 431.571C1135.24 431.33 1135.25 431.079 1135.22 430.832C1135.23 430.187 1135.16 429.542 1135.01 428.914C1134.99 428.954 1134.97 428.993 1134.95 429.03C1133.98 424.756 1130.71 417.965 1130.71 417.965C1130.71 417.965 1130.57 413.69 1131.75 411.976C1132.93 410.262 1131.6 388.721 1131.6 388.721C1131.6 388.721 1132.04 378.312 1130.71 373.461C1129.38 368.61 1132.33 362.898 1132.33 362.898C1132.33 362.898 1132.33 362.789 1132.33 362.592V362.519L1132.17 360.878C1132.16 360.911 1132.16 360.946 1132.17 360.98C1131.87 358.222 1131.3 353.226 1130.89 350.921C1130.3 347.638 1131.04 331.955 1131.04 331.955L1133.69 325.244L1138.41 336.806L1143.43 352.212C1143.43 352.212 1145.91 355.465 1145.97 358.777C1145.97 358.937 1145.97 359.098 1145.97 359.258C1145.93 359.6 1145.91 359.943 1145.91 360.287C1145.82 362.233 1146.35 364.157 1147.43 365.78C1147.43 365.78 1148.76 373.074 1150.83 374.905C1152.89 376.736 1152.89 380.325 1152.89 380.325C1152.89 380.325 1155.4 390.887 1156.54 392.726C1157.53 394.287 1157.58 398.561 1157.58 399.896C1157.58 400.137 1157.58 400.275 1157.58 400.275C1157.58 400.275 1157.93 404.054 1157.91 407.22C1157.91 407.614 1157.91 407.993 1157.91 408.35C1157.92 408.324 1157.92 408.297 1157.91 408.27C1157.91 409.135 1157.81 409.997 1157.61 410.838L1157.56 410.984C1157.56 410.801 1157.56 410.626 1157.61 410.451C1157.1 412.601 1156.86 414.806 1156.88 417.016C1156.82 420.809 1157.4 425.303 1159.69 427.958C1163.68 432.525 1166.18 431.956 1166.18 431.956C1166.18 431.956 1164.27 437.66 1161.91 438.805C1161.82 438.847 1161.73 438.901 1161.66 438.966C1161.66 438.849 1161.61 438.739 1161.6 438.63C1161.34 438.915 1161.13 439.251 1161.01 439.618C1160.88 439.985 1160.84 440.374 1160.87 440.76C1160.7 443.269 1162.28 447.325 1163.79 449.214C1164.35 449.761 1165.03 450.162 1165.78 450.382C1165.66 450.465 1165.54 450.541 1165.41 450.608C1165.15 450.752 1164.88 450.881 1164.6 450.994C1164.21 451.157 1163.81 451.263 1163.39 451.308C1162.59 451.329 1161.81 451.521 1161.09 451.871C1160.37 452.221 1159.73 452.72 1159.22 453.336C1157.76 455.232 1156.83 457.822 1159.73 460.098L1170.28 463.745C1170.28 463.745 1188.3 466.057 1187.35 461.994Z" fill="url(#paint0_linear_707_308)"/>
<path d="M1118.09 468.735L1107.87 465.087C1105.05 462.811 1105.95 460.222 1107.37 458.318C1107.86 457.711 1108.48 457.216 1109.17 456.866C1109.87 456.516 1110.64 456.32 1111.42 456.29C1112.11 456.202 1112.77 455.966 1113.37 455.597C1114.01 455.245 1114.57 454.746 1114.99 454.138C1115.73 452.956 1116.13 451.589 1116.15 450.192C1116.15 450.192 1127.36 446.909 1130.42 450.192C1130.97 450.786 1131.43 451.457 1131.78 452.183C1132.8 454.449 1133.3 456.914 1133.24 459.398C1133.24 459.398 1133.81 462.957 1134.73 467.028C1135.66 471.098 1118.09 468.735 1118.09 468.735Z" fill="#2D293D"/>
<path d="M1168.04 463.701L1157.82 460.054C1155 457.778 1155.9 455.189 1157.32 453.292C1157.81 452.683 1158.42 452.186 1159.12 451.835C1159.81 451.485 1160.58 451.29 1161.36 451.264C1161.76 451.223 1162.16 451.117 1162.53 450.951C1162.8 450.837 1163.06 450.708 1163.31 450.564C1166.17 448.996 1166.09 445.144 1166.09 445.144C1166.09 445.144 1177.3 441.862 1180.37 445.144C1180.78 445.589 1181.14 446.078 1181.44 446.603C1183.36 449.922 1183.15 454.35 1183.15 454.35C1183.15 454.35 1183.72 457.917 1184.61 461.98C1185.5 466.043 1168.04 463.701 1168.04 463.701Z" fill="#2D293D"/>
<path opacity="0.1" d="M1130.43 450.185C1130.98 450.779 1131.43 451.45 1131.79 452.176L1115 454.124C1115.75 452.941 1116.15 451.575 1116.16 450.177C1116.16 450.177 1127.36 446.902 1130.43 450.185Z" fill="black"/>
<path opacity="0.1" d="M1181.46 446.618V449.761C1178.84 454.058 1166.21 453.117 1162.54 450.965C1162.81 450.851 1163.07 450.722 1163.33 450.579C1166.18 449.01 1166.11 445.159 1166.11 445.159C1166.11 445.159 1177.31 441.876 1180.38 445.159C1180.8 445.603 1181.16 446.093 1181.46 446.618V446.618Z" fill="black"/>
<path d="M1183.45 433.064C1182.67 434.434 1182 435.866 1181.46 437.346V448.616C1178.6 453.321 1163.76 451.753 1161.75 449.185C1159.74 446.618 1157.65 439.936 1159.91 438.776C1162.16 437.616 1164.04 431.926 1164.04 431.926C1164.04 431.926 1161.61 432.495 1157.76 427.929C1153.91 423.363 1155.05 413.238 1155.77 410.816C1156.48 408.394 1155.77 400.261 1155.77 400.261C1155.77 400.261 1155.91 394.549 1154.77 392.696C1153.64 390.843 1151.21 380.296 1151.21 380.296C1151.21 380.296 1151.21 376.729 1149.21 374.876C1147.21 373.023 1145.92 365.743 1145.92 365.743C1144.75 363.924 1144.25 361.756 1144.5 359.608C1144.92 356.041 1142.07 352.19 1142.07 352.19L1137.22 336.776L1132.65 325.222L1130.08 331.926C1130.08 331.926 1129.35 347.616 1129.94 350.891C1130.53 354.167 1131.4 362.876 1131.4 362.876C1131.4 362.876 1128.55 368.581 1129.83 373.431C1131.11 378.282 1130.65 388.706 1130.65 388.706C1130.65 388.706 1131.93 410.24 1130.79 411.954C1129.64 413.668 1129.79 417.95 1129.79 417.95C1129.79 417.95 1135.62 430.497 1133.79 432.211C1131.95 433.925 1132.5 438.63 1132.5 438.63C1132.5 438.63 1136.49 438.63 1134.79 440.344C1133.08 442.058 1131.79 451.045 1131.79 451.045L1114.53 453.066C1114.53 453.066 1112.95 451.074 1110.66 445.771C1108.38 440.468 1111.09 441.066 1113.39 440.49C1115.69 439.914 1114.23 438.499 1111.52 436.784C1108.8 435.07 1110.38 431.219 1110.38 431.219C1110.38 431.219 1114.52 424.231 1113.09 423.662C1111.66 423.093 1111.52 413.245 1111.52 413.245C1111.52 413.245 1108.67 401.574 1109.38 398.408C1110.1 395.242 1107.1 387.714 1107.1 387.714L1106.1 378.727C1103.04 373.628 1101.93 367.599 1102.96 361.746V347.886C1102.96 347.886 1098.96 321.071 1098.39 307.518C1098.02 298.838 1098.13 286.991 1098.24 279.602C1098.32 275.459 1098.39 272.708 1098.39 272.708L1160.04 266.289C1160.04 266.289 1159.99 269.134 1161.16 275.444C1161.8 278.829 1162.78 283.213 1164.33 288.691C1168.75 304.381 1166.04 316.075 1166.04 316.075L1165.47 335.908C1165.47 335.908 1170.89 349.17 1169.75 353.736C1169.06 356.448 1168.68 359.227 1168.6 362.023C1168.6 362.023 1180.73 390.982 1179.44 399.4C1178.16 407.818 1183.43 421.087 1183.43 421.087C1183.43 421.087 1184.88 430.497 1183.45 433.064Z" fill="#464353"/>
<path opacity="0.05" d="M1148.2 358.748L1166.97 356.246C1166.97 356.246 1156.34 367.093 1148.2 358.748Z" fill="black"/>
<path opacity="0.1" d="M1164.26 337.914C1164.26 337.914 1164.9 344.552 1160.83 347.047C1160.83 347.047 1168.11 345.909 1164.26 337.914Z" fill="black"/>
<path opacity="0.1" d="M1163.1 316.804C1163.1 316.804 1147.41 329.715 1141.7 328.643C1136 327.571 1163.1 316.804 1163.1 316.804Z" fill="black"/>
<path opacity="0.1" d="M1124.93 364.802C1124.93 364.802 1113.01 367.508 1112.66 372.294C1112.3 377.079 1124.93 364.802 1124.93 364.802Z" fill="black"/>
<path opacity="0.05" d="M1127.55 424.296C1127.55 424.296 1110.72 427.433 1115.5 429.57C1120.28 431.708 1128.13 433.422 1128.13 433.422C1128.13 433.422 1133.57 433.706 1127.55 424.296Z" fill="black"/>
<g opacity="0.05">
<path opacity="0.05" d="M1112.1 432.969C1111.67 432.705 1111.31 432.349 1111.05 431.927C1110.78 431.505 1110.61 431.029 1110.56 430.533L1110.38 430.832C1110.38 430.832 1108.81 434.684 1111.53 436.391C1111.83 436.588 1112.13 436.785 1112.4 436.974C1112.91 436.879 1113.45 436.806 1113.96 436.675C1116.26 436.106 1114.81 434.684 1112.1 432.969Z" fill="black"/>
<path opacity="0.05" d="M1133.79 431.824C1134.25 431.401 1134.24 430.307 1133.95 428.906C1133.22 430.008 1133.01 431.729 1133 433.035C1133.17 432.582 1133.44 432.17 1133.79 431.824V431.824Z" fill="black"/>
<path opacity="0.05" d="M1131.19 360.856C1130.57 362.543 1130.19 364.308 1130.06 366.1C1130.38 364.862 1130.82 363.656 1131.36 362.497L1131.19 360.856Z" fill="black"/>
<path opacity="0.05" d="M1169.76 353.371C1169.87 352.859 1169.92 352.335 1169.91 351.81C1169.7 352.875 1169.55 353.86 1169.44 354.728C1169.54 354.283 1169.64 353.86 1169.76 353.371Z" fill="black"/>
<path opacity="0.05" d="M1130.79 411.575C1131.03 411.224 1131.16 410.043 1131.22 408.401C1130.69 409.672 1130.41 411.031 1130.39 412.406C1130.49 412.114 1130.63 411.835 1130.79 411.575V411.575Z" fill="black"/>
<path opacity="0.05" d="M1134.3 438.477C1133.41 441.338 1132.76 444.265 1132.33 447.23L1115.07 449.222C1115.07 449.222 1113.5 447.23 1111.21 441.927C1111.03 441.517 1110.87 441.099 1110.72 440.672C1109.69 441.147 1109.26 442.219 1110.64 445.348C1112.92 450.629 1114.5 452.643 1114.5 452.643L1131.76 450.644C1131.76 450.644 1133.05 441.657 1134.76 439.943C1135.63 439.119 1135.09 438.688 1134.3 438.477Z" fill="black"/>
<path opacity="0.05" d="M1111.53 412.858C1111.53 412.858 1111.66 422.699 1113.1 423.268C1113.82 421.641 1114.3 420.095 1113.66 419.839C1112.2 419.27 1112.09 409.423 1112.09 409.423C1112.09 409.423 1109.23 397.751 1109.95 394.586C1110.66 391.42 1107.67 383.892 1107.67 383.892L1106.67 374.905C1103.61 369.805 1102.5 363.777 1103.53 357.923V344.064C1103.53 344.064 1099.53 317.249 1098.96 303.696C1098.59 295.015 1098.7 283.169 1098.81 275.779C1098.81 274.445 1098.86 273.263 1098.88 272.264L1098.39 272.315C1098.39 272.315 1098.31 275.057 1098.24 279.208C1098.13 286.597 1098.02 298.444 1098.39 307.117C1098.96 320.67 1102.95 347.492 1102.95 347.492V361.352C1101.93 367.204 1103.04 373.229 1106.1 378.326L1107.09 387.313C1107.09 387.313 1110.09 394.87 1109.37 398.014C1108.66 401.158 1111.53 412.858 1111.53 412.858Z" fill="black"/>
<path opacity="0.05" d="M1162.34 445.377C1160.93 443.349 1160 441.034 1159.6 438.601C1157.84 440.191 1159.86 446.362 1161.79 448.813C1163.78 451.381 1178.63 452.949 1181.49 448.237V445.523C1177.6 449.338 1164.22 447.807 1162.34 445.377Z" fill="black"/>
<path opacity="0.05" d="M1184.03 429.257C1183.24 430.627 1182.57 432.059 1182.03 433.538V435.559C1182.35 434.83 1182.81 433.852 1183.49 432.7C1183.94 431.576 1184.15 430.372 1184.11 429.162C1184.11 429.162 1184.05 429.227 1184.03 429.257Z" fill="black"/>
<path opacity="0.05" d="M1163.21 431.511C1163.75 430.412 1164.23 429.279 1164.62 428.119C1164.62 428.119 1162.19 428.688 1158.34 424.121C1155.53 420.802 1155.37 414.529 1155.77 410.429C1155.05 412.858 1153.91 422.983 1157.77 427.55C1160.29 430.533 1162.19 431.321 1163.21 431.511Z" fill="black"/>
<path opacity="0.05" d="M1155.77 399.874C1156.02 402.685 1156.11 405.507 1156.05 408.329C1156.12 407.883 1156.22 407.442 1156.34 407.008C1157.07 404.579 1156.34 396.453 1156.34 396.453C1156.34 396.453 1156.49 390.741 1155.34 388.889C1154.2 387.036 1151.81 376.473 1151.81 376.473C1151.81 376.473 1151.81 372.906 1149.81 371.053C1147.81 369.201 1146.53 361.921 1146.53 361.921C1145.35 360.105 1144.83 357.938 1145.07 355.786C1145.5 352.219 1142.65 348.367 1142.65 348.367L1137.79 332.961L1133.22 321.407L1130.65 328.118C1130.65 328.118 1130.65 328.964 1130.56 330.306L1132.65 324.857L1137.22 336.39L1142.07 351.796C1142.07 351.796 1144.92 355.647 1144.49 359.214C1144.26 361.366 1144.77 363.534 1145.95 365.349C1145.95 365.349 1147.24 372.644 1149.24 374.482C1151.24 376.32 1151.23 379.902 1151.23 379.902C1151.23 379.902 1153.66 390.457 1154.8 392.302C1155.94 394.148 1155.77 399.874 1155.77 399.874Z" fill="black"/>
</g>
<path d="M1167.75 137.417L1166.68 142.625L1166.74 144.945L1166.79 146.652L1160.83 147.264L1160.17 146.032C1158.93 143.8 1156.37 139.262 1155.55 138.562C1154.45 137.643 1152.48 123.156 1154.82 124.017C1156.26 124.572 1157.44 125.64 1158.13 127.015C1158.13 127.015 1169.86 128.357 1167.75 137.417Z" fill="#FFCDD3"/>
<path opacity="0.1" d="M1166.79 146.652L1160.83 147.264L1160.17 146.032C1160.97 145.12 1162.06 144.514 1163.26 144.318C1164.46 144.121 1165.69 144.345 1166.74 144.952L1166.79 146.652Z" fill="black"/>
<path d="M1168.29 149.475L1160.44 151.291L1160.27 150.124L1159.83 146.98C1159.83 146.98 1162.93 142.837 1167.43 145.944L1167.82 147.542L1168.29 149.475Z" fill="#6C63FF"/>
<path d="M1041.08 137.986L1032.7 142.479L1031.97 140.904C1031.17 139.233 1029.98 136.716 1029.66 135.797C1029.16 134.411 1025.66 132.661 1025.66 132.661C1016.91 124.279 1027.34 117.072 1027.34 117.072C1032.87 105.948 1039.02 120.851 1039.02 120.851C1039.02 120.851 1039.88 128.707 1039.27 129.232C1038.67 129.757 1038.67 131.909 1038.67 131.909C1039.47 133.451 1040.14 135.054 1040.69 136.702C1040.95 137.497 1041.08 137.986 1041.08 137.986Z" fill="#FFCDD3"/>
<path opacity="0.1" d="M1041.08 137.986L1032.7 142.479L1031.97 140.904C1033.15 139.911 1037.35 136.527 1038.73 136.665C1039.39 136.748 1040.05 136.765 1040.71 136.716C1040.95 137.497 1041.08 137.986 1041.08 137.986Z" fill="black"/>
<path d="M1041.94 140.517L1032.52 145.156L1032.33 143.136L1032.19 141.735C1032.19 141.735 1037.65 137.059 1039.27 137.242C1040.08 137.36 1040.91 137.36 1041.73 137.242L1041.84 138.934L1041.94 140.517Z" fill="#6C63FF"/>
<path d="M1144.92 172.015C1144.92 172.015 1103.84 176.647 1111.52 174.152C1116.86 172.409 1118.98 169.046 1119.43 165.253C1119.79 162.094 1118.98 158.688 1117.9 155.77C1116.94 153.181 1115.72 150.696 1114.26 148.351C1114.26 148.351 1145.64 131.092 1139.37 146.783C1138.4 149.156 1137.8 151.663 1137.59 154.216C1137.4 156.754 1137.67 159.305 1138.4 161.744C1139.58 165.703 1141.84 169.257 1144.92 172.015V172.015Z" fill="#FFCDD3"/>
<path opacity="0.1" d="M1139.35 146.761C1138.38 149.134 1137.78 151.641 1137.57 154.194C1134.61 156.682 1131.37 156.514 1127.2 156.514C1124.01 156.514 1120.46 157.287 1117.9 155.748C1116.94 153.159 1115.72 150.674 1114.26 148.329C1114.26 148.329 1145.63 131.071 1139.35 146.761Z" fill="black"/>
<path d="M1126.65 157.608C1136.03 157.608 1143.63 150.008 1143.63 140.634C1143.63 131.259 1136.03 123.659 1126.65 123.659C1117.27 123.659 1109.67 131.259 1109.67 140.634C1109.67 150.008 1117.27 157.608 1126.65 157.608Z" fill="#FFCDD3"/>
<path opacity="0.1" d="M1144.92 172.015C1144.92 172.015 1103.84 176.647 1111.52 174.152C1116.86 172.409 1118.98 169.046 1119.43 165.253C1121.47 163.064 1125.58 161.438 1128.19 160.591C1130.6 159.782 1133.2 159.739 1135.63 160.467C1136.59 160.756 1137.5 161.178 1138.34 161.722C1139.54 165.695 1141.81 169.258 1144.92 172.015V172.015Z" fill="black"/>
<path opacity="0.1" d="M1168.29 149.475L1160.44 151.291L1160.27 150.124C1161.11 148.969 1162.29 148.102 1163.64 147.64C1164.99 147.178 1166.45 147.144 1167.82 147.542L1168.29 149.475Z" fill="black"/>
<path opacity="0.1" d="M1041.94 140.517L1032.52 145.156L1032.33 143.136C1035.38 141.496 1038.55 140.089 1041.81 138.927L1041.94 140.517Z" fill="black"/>
<path opacity="0.1" d="M1161.16 275.459C1145.24 277.997 1122.62 281.236 1119.03 280.142C1116.04 279.237 1106.53 279.332 1098.24 279.616C1098.32 275.473 1098.39 272.723 1098.39 272.723L1160.04 266.304C1160.04 266.304 1159.99 269.149 1161.16 275.459Z" fill="black"/>
<path d="M1177.03 271.724C1177.03 271.724 1124.65 280.711 1119.03 279.018C1113.41 277.326 1084.54 279.157 1084.54 279.157C1071.55 287.859 1076.98 275.021 1076.98 275.021C1076.98 275.021 1075.84 268.317 1077.41 262.897C1078.46 258.918 1079.18 254.858 1079.56 250.759C1079.56 250.759 1079.28 242.195 1080.84 240.197C1082.41 238.198 1084.27 223.937 1084.27 223.937C1084.27 223.937 1085.7 214.236 1085.56 212.098C1085.42 209.961 1085.98 203.965 1085.98 203.965L1087.84 193.979C1077.14 192.556 1044.59 172.584 1044.59 172.584C1043.03 165.88 1030.9 150.189 1030.9 150.189C1030.72 148.87 1030.38 147.577 1029.9 146.338C1029.04 144.055 1041.89 139.488 1041.89 139.488C1041.89 139.488 1051.45 151.16 1053.45 154.325C1055.45 157.491 1062.29 163.312 1062.29 163.312C1063.36 163.203 1064.43 163.343 1065.43 163.721L1065.6 163.772C1067.89 164.672 1070.04 165.901 1071.98 167.419C1075.2 167.343 1078.33 168.52 1080.69 170.702C1080.69 170.702 1086.53 169.841 1087.54 170.84C1088.56 171.84 1093.54 170.84 1093.54 170.84C1093.54 170.84 1098.53 160.285 1101.81 163.349C1105.1 166.413 1119.03 166.267 1119.03 166.267C1120.88 163.801 1125.4 162.036 1128.22 161.16C1130.63 160.354 1133.23 160.311 1135.67 161.036C1136.72 161.35 1137.71 161.843 1138.59 162.495L1147.06 170.767C1147.06 170.767 1149.48 167.623 1149.2 166.916C1148.91 166.208 1152.05 165.632 1152.05 165.632C1152.05 165.632 1156.19 164.348 1157.76 163.918C1159.33 163.487 1160.77 165.187 1160.9 165.34C1160.85 165.158 1159.77 161.693 1160.17 159.067C1160.56 156.441 1158.45 153.961 1158.45 153.961C1163.45 141.691 1174.72 151.962 1174.72 151.962C1174.72 151.962 1176.01 158.666 1174.87 161.233C1173.73 163.801 1176.01 169.221 1175.72 170.651C1175.44 172.08 1176.3 174.502 1176.3 177.216C1176.3 179.929 1174.84 185.057 1174.01 187.341C1173.19 189.624 1166.31 194.759 1166.31 194.759C1166.31 194.759 1165.88 202.893 1162.88 207.597C1159.88 212.302 1161.76 228.394 1161.76 228.394C1161.76 228.394 1164.61 240.948 1168.18 244.946C1171.75 248.943 1177.03 271.724 1177.03 271.724Z" fill="#3F3D56"/>
<path opacity="0.1" d="M1100.67 177.858C1100.67 177.858 1099.1 173.153 1097.67 172.752C1096.25 172.229 1094.87 171.61 1093.54 170.899L1094.46 169.141C1094.46 169.141 1099.81 170.6 1100.67 172.183C1101.53 173.765 1100.67 177.858 1100.67 177.858Z" fill="black"/>
<path opacity="0.1" d="M1071.98 167.448C1071.7 168.907 1058.99 170.155 1058.99 170.155L1065.42 163.721L1065.58 163.779C1067.88 164.684 1070.04 165.92 1071.98 167.448V167.448Z" fill="black"/>
<path d="M1035.23 149.008C1035.86 149.008 1036.37 148.498 1036.37 147.87C1036.37 147.241 1035.86 146.732 1035.23 146.732C1034.6 146.732 1034.09 147.241 1034.09 147.87C1034.09 148.498 1034.6 149.008 1035.23 149.008Z" fill="#575988"/>
<path d="M1036.69 151.291C1037.32 151.291 1037.83 150.782 1037.83 150.153C1037.83 149.525 1037.32 149.015 1036.69 149.015C1036.06 149.015 1035.55 149.525 1035.55 150.153C1035.55 150.782 1036.06 151.291 1036.69 151.291Z" fill="#575988"/>
<path d="M1038.12 153.399C1038.75 153.399 1039.26 152.89 1039.26 152.261C1039.26 151.633 1038.75 151.123 1038.12 151.123C1037.49 151.123 1036.98 151.633 1036.98 152.261C1036.98 152.89 1037.49 153.399 1038.12 153.399Z" fill="#575988"/>
<path d="M1039.62 155.675C1040.25 155.675 1040.76 155.165 1040.76 154.537C1040.76 153.909 1040.25 153.399 1039.62 153.399C1038.99 153.399 1038.48 153.909 1038.48 154.537C1038.48 155.165 1038.99 155.675 1039.62 155.675Z" fill="#575988"/>
<path d="M1174.15 155.339C1174.66 155.339 1175.08 154.925 1175.08 154.413C1175.08 153.901 1174.66 153.487 1174.15 153.487C1173.64 153.487 1173.22 153.901 1173.22 154.413C1173.22 154.925 1173.64 155.339 1174.15 155.339Z" fill="#575988"/>
<path d="M1174.3 157.448C1174.81 157.448 1175.22 157.033 1175.22 156.521C1175.22 156.009 1174.81 155.595 1174.3 155.595C1173.79 155.595 1173.37 156.009 1173.37 156.521C1173.37 157.033 1173.79 157.448 1174.3 157.448Z" fill="#575988"/>
<path d="M1174.42 159.548C1174.93 159.548 1175.35 159.134 1175.35 158.622C1175.35 158.11 1174.93 157.696 1174.42 157.696C1173.91 157.696 1173.49 158.11 1173.49 158.622C1173.49 159.134 1173.91 159.548 1174.42 159.548Z" fill="#575988"/>
<path opacity="0.1" d="M1100.72 216.519C1100.59 216.351 1132.76 256.96 1157.74 233.493C1157.76 233.5 1118.3 238.847 1100.72 216.519Z" fill="black"/>
<path opacity="0.1" d="M1082.26 237.629C1082.26 237.629 1101.51 238.154 1103.53 243.691V249.454C1102.98 249.758 1102.36 249.917 1101.74 249.917C1101.11 249.917 1100.49 249.758 1099.94 249.454C1098 248.403 1086.36 242.495 1082.26 245.339V237.629Z" fill="black"/>
<path d="M1082.62 237.629C1082.62 237.629 1101.03 238.132 1102.96 243.414V248.899C1102.43 249.19 1101.84 249.343 1101.24 249.343C1100.64 249.343 1100.05 249.19 1099.53 248.899C1097.67 247.907 1086.54 242.268 1082.62 244.982V237.629Z" fill="#3F3D56"/>
<path opacity="0.1" d="M1092.77 195.846C1094.74 200.397 1097.24 204.695 1100.24 208.648C1103.49 213.017 1107.43 216.829 1111.91 219.933C1111.91 219.933 1093.09 198.487 1092.77 195.846Z" fill="black"/>
<path opacity="0.1" d="M1086.47 173.488C1086.47 173.488 1089.68 187.348 1097.96 192.053L1086.47 173.488Z" fill="black"/>
<path opacity="0.1" d="M1081.54 174.889C1081.46 174.634 1078.69 185.831 1092.21 192.053C1092.21 192.053 1086.47 190.105 1081.54 174.889Z" fill="black"/>
<path opacity="0.1" d="M1165.61 165.596C1165.4 165.596 1172.28 169.972 1174.16 172.015C1174.16 172.015 1169.68 165.304 1165.61 165.596Z" fill="black"/>
<path d="M1122.06 156.018C1122.06 156.388 1122.14 156.754 1122.29 157.092C1122.44 157.43 1122.66 157.733 1122.94 157.982C1123.21 158.231 1123.53 158.42 1123.88 158.538C1124.24 158.655 1124.61 158.699 1124.98 158.666C1130.15 158.987 1135.54 159.213 1140.3 157.207C1141.2 156.888 1142 156.358 1142.64 155.66C1143.48 154.617 1143.65 153.202 1144 151.904C1144.67 149.365 1146.1 147.111 1147.13 144.697C1148.87 140.617 1149.45 136.138 1148.81 131.749C1148.68 130.404 1148.23 129.108 1147.51 127.963C1146.14 126.001 1143.64 125.206 1141.82 123.645C1140 122.084 1138.84 119.698 1136.71 118.538C1134.8 117.473 1132.46 117.605 1130.3 117.97C1126.07 118.688 1122.01 120.211 1118.35 122.456C1117.12 123.185 1115.77 124.082 1114.35 123.812C1113.11 123.579 1112.2 122.536 1111.43 121.558C1110.44 123.893 1110.02 126.432 1110.21 128.962C1110.27 129.334 1110.25 129.712 1110.18 130.078C1110 130.522 1109.73 130.923 1109.38 131.253C1108.1 132.712 1107.31 135.083 1108.57 136.585C1109.12 137.234 1109.96 137.592 1110.5 138.256C1111.45 139.445 1111.13 141.173 1111.11 142.691C1111.06 143.221 1111.19 143.752 1111.49 144.193C1111.77 144.451 1112.1 144.632 1112.47 144.72C1112.84 144.809 1113.22 144.8 1113.58 144.697C1114.31 144.479 1115.07 144.407 1115.82 144.485C1116.61 144.742 1117.29 145.256 1117.76 145.944C1120.12 149.015 1121.05 152.356 1122.06 156.018Z" fill="#2D293D"/>
<g opacity="0.1">
<path opacity="0.1" d="M1143.24 154.369C1142.6 155.067 1141.8 155.597 1140.91 155.916C1136.12 157.907 1130.73 157.681 1125.58 157.375C1125.03 157.38 1124.48 157.258 1123.98 157.017C1123.2 156.558 1122.9 155.595 1122.66 154.719C1121.65 151.072 1120.72 147.724 1118.33 144.682C1117.87 143.981 1117.18 143.454 1116.39 143.187C1115.64 143.116 1114.88 143.188 1114.15 143.398C1113.79 143.503 1113.41 143.512 1113.04 143.425C1112.67 143.338 1112.34 143.158 1112.06 142.902C1111.76 142.461 1111.63 141.929 1111.68 141.4C1111.68 139.868 1112.02 138.154 1111.07 136.965C1110.53 136.301 1109.69 135.943 1109.14 135.287C1108.78 134.803 1108.56 134.231 1108.51 133.633C1108.45 133.034 1108.55 132.431 1108.81 131.888C1107.9 133.346 1107.51 135.177 1108.57 136.432C1109.12 137.081 1109.96 137.439 1110.5 138.103C1111.45 139.299 1111.13 141.02 1111.11 142.538C1111.05 143.067 1111.19 143.598 1111.48 144.04C1111.76 144.299 1112.1 144.481 1112.47 144.569C1112.84 144.657 1113.22 144.649 1113.58 144.544C1114.31 144.326 1115.07 144.254 1115.82 144.332C1116.61 144.589 1117.29 145.103 1117.76 145.791C1120.15 148.833 1121.08 152.174 1122.09 155.836C1122.2 156.737 1122.65 157.561 1123.35 158.148C1123.85 158.389 1124.4 158.509 1124.95 158.498C1130.13 158.819 1135.52 159.052 1140.28 157.039C1141.17 156.723 1141.98 156.192 1142.62 155.493C1142.94 155.082 1143.19 154.618 1143.35 154.121C1143.35 154.216 1143.3 154.296 1143.24 154.369Z" fill="black"/>
<path opacity="0.1" d="M1110.21 129.634C1110.44 129.385 1110.62 129.092 1110.73 128.773C1110.8 128.404 1110.8 128.026 1110.73 127.657C1110.59 125.577 1110.86 123.49 1111.53 121.515L1111.43 121.405C1110.43 123.736 1110.01 126.274 1110.21 128.802C1110.23 129.079 1110.23 129.357 1110.21 129.634V129.634Z" fill="black"/>
</g>
<path opacity="0.1" d="M1119.03 166.303C1119.03 166.303 1140.24 169.119 1142.15 165.931Z" fill="black"/>
<path opacity="0.1" d="M1160.27 157.528C1160.27 157.528 1172.06 157.528 1174.66 161.963Z" fill="black"/>
<path d="M1226.25 551.542C1222.75 554.668 1218.21 556.366 1213.52 556.298C1212.32 556.298 1210.66 556.524 1210.66 557.721C1210.69 558.072 1210.81 558.409 1211.01 558.698C1212.49 561.166 1214.83 563.002 1217.58 563.855C1220.13 564.629 1222.86 564.497 1225.52 564.359L1233.3 563.958C1234.76 563.877 1236.21 563.804 1237.67 563.622C1239.13 563.44 1240.73 563.141 1242.25 562.893C1246 562.36 1249.79 562.184 1253.57 562.367C1254.58 562.404 1255.76 562.367 1256.36 561.638C1256.96 560.908 1256.65 559.515 1256.42 558.421C1255.96 556.167 1256.42 553.804 1255.99 551.542C1255.26 547.574 1251.83 544.532 1248.06 543.095C1244.56 541.768 1238.35 540.243 1235.04 542.461C1231.54 544.788 1229.41 548.676 1226.25 551.542Z" fill="#3F3D56"/>
<path d="M1233.97 418.592C1234.66 421.853 1237.82 424.347 1237.91 427.674C1237.99 430.343 1236.08 432.583 1234.71 434.866C1233.42 437.231 1232.33 439.7 1231.45 442.248C1228.87 448.882 1225.66 455.257 1221.87 461.287C1220.05 464.205 1218.01 467.319 1218.42 470.711C1218.71 472.298 1219.27 473.822 1220.08 475.219L1225.55 486.088C1226.75 488.258 1227.69 490.562 1228.35 492.952C1228.82 495.017 1228.87 497.154 1229.14 499.255C1230 505.922 1233.14 512.633 1231.28 519.096C1231.12 519.651 1230.55 520.322 1230.11 519.935C1231.92 523.312 1233.37 526.712 1233.23 530.541C1233.16 532.547 1232.54 534.641 1233.28 536.508C1233.6 537.289 1234.14 538.018 1234.14 538.857C1234.14 539.411 1233.88 539.929 1233.82 540.469C1233.67 542.008 1235.08 543.292 1236.55 543.781C1238.02 544.27 1239.62 544.233 1241.1 544.678C1243.94 545.532 1245.98 547.982 1248.4 549.682C1250.87 551.388 1253.79 552.339 1256.8 552.418C1257.23 552.463 1257.67 552.377 1258.04 552.17C1258.26 551.982 1258.43 551.751 1258.55 551.492C1258.67 551.233 1258.73 550.952 1258.73 550.667C1258.86 549.304 1258.66 547.931 1258.13 546.666C1257.61 545.402 1256.78 544.286 1255.72 543.416C1255.26 543.126 1254.88 542.725 1254.61 542.249C1254.47 541.828 1254.44 541.38 1254.5 540.943C1254.94 534.964 1254.84 528.958 1254.18 522.999C1253.89 521.11 1253.79 519.196 1253.9 517.287C1254.05 515.697 1254.53 514.121 1254.36 512.538C1254.18 510.955 1253.37 509.511 1252.9 507.987C1252.05 505.273 1252.29 502.355 1252.17 499.518C1252.02 494.586 1250.89 489.743 1249.77 484.928C1249.32 483.039 1248.83 481.062 1247.5 479.662C1246.36 478.473 1244.52 477.335 1244.95 475.752C1245.19 475.168 1245.54 474.64 1245.99 474.198C1246.52 473.535 1246.91 472.772 1247.13 471.954C1247.36 471.136 1247.41 470.282 1247.29 469.442C1247.77 469.565 1248.28 469.517 1248.73 469.306C1249.18 469.096 1249.54 468.737 1249.75 468.29C1258.64 464.095 1265.81 455.707 1269.01 446.406C1269.19 445.715 1269.48 445.056 1269.87 444.451C1270.69 443.299 1272.12 442.803 1273.39 442.168C1277.38 440.162 1280.13 436.405 1282.65 432.729C1284.11 430.599 1285.57 428.396 1286.23 425.886C1286.57 424.263 1286.74 422.607 1286.72 420.948L1286.94 412.377C1286.99 411.813 1286.94 411.244 1286.78 410.699C1286.57 410.19 1286.25 409.729 1285.86 409.342C1283.43 406.777 1280.24 405.058 1276.76 404.441C1274.43 404.025 1272.04 404.105 1269.68 403.908C1265.09 403.529 1260.57 402.106 1255.99 402.449C1248.78 402.982 1242.37 407.971 1238.97 414.346C1237.78 416.593 1236.53 418.548 1233.97 418.592Z" fill="#464353"/>
<path d="M1193.98 362.862C1194.08 364.185 1193.9 365.514 1193.45 366.764C1192.89 367.961 1191.48 368.894 1190.25 368.406C1190.62 367.567 1189.64 366.611 1188.72 366.713C1188.27 366.817 1187.85 367.03 1187.49 367.332C1187.14 367.635 1186.87 368.018 1186.7 368.449C1186.09 369.674 1185.88 371.061 1186.11 372.41C1186.4 374.088 1187.38 375.7 1187.12 377.385C1186.92 378.786 1185.89 380.179 1186.43 381.477C1186.79 382.071 1187.23 382.605 1187.76 383.06C1188.48 383.948 1188.83 385.078 1188.74 386.219C1188.65 387.359 1188.13 388.421 1187.28 389.188L1201.09 389.465C1200.59 391.77 1201.62 394.126 1202.8 396.176C1206.12 401.811 1210.69 406.603 1216.16 410.176C1221.64 413.749 1227.87 416.005 1234.36 416.768C1234.01 416.973 1233.71 417.254 1233.48 417.589C1233.25 417.925 1233.1 418.307 1233.03 418.708C1232.97 419.11 1233 419.52 1233.11 419.91C1233.23 420.3 1233.43 420.659 1233.7 420.963C1234.82 422.079 1236.73 421.94 1238.13 421.218C1239.54 420.496 1240.64 419.3 1241.93 418.373C1244.2 416.767 1246.96 416.022 1249.73 416.272C1251.46 416.44 1253.14 417.002 1254.88 417.089C1259.99 417.359 1264.36 413.683 1269.28 412.18C1272.87 411.079 1276.93 411.079 1279.94 408.839C1281.24 407.876 1282.3 406.293 1281.92 404.732C1281.61 403.835 1281.11 403.013 1280.46 402.318C1278.73 400.078 1277.71 397.387 1276.47 394.841C1274.01 389.801 1270.63 385.267 1266.5 381.477C1263.37 378.751 1260.07 376.245 1256.6 373.979C1255.76 373.36 1254.87 372.82 1253.93 372.366C1252.72 371.834 1251.37 371.579 1250.28 370.908C1248.66 369.886 1247.72 368.085 1246.48 366.633C1243.74 363.438 1239.54 361.972 1236.16 359.462C1233.9 357.777 1231.9 355.56 1229.2 354.75C1227.89 354.349 1226.49 354.32 1225.18 353.926C1222.2 353.021 1220.02 350.373 1217.09 349.301C1214.78 348.455 1212.23 348.674 1209.8 348.375C1207.06 348.037 1204.44 347.041 1202.17 345.471C1201.44 344.876 1200.62 344.399 1199.74 344.056C1196.04 342.933 1195.74 349.819 1195.36 352.204C1194.87 355.75 1193.98 359.273 1193.98 362.862Z" fill="#6C63FF"/>
<path d="M1197.59 385.956C1198.21 392.682 1193.13 399.196 1194.61 405.783C1194.92 407.183 1195.53 408.518 1195.75 409.941C1196.37 413.843 1194.03 417.542 1191.81 420.81L1172.68 448.857C1171.92 450.088 1171 451.22 1169.95 452.227C1166.31 455.473 1160.82 455.145 1156.02 456.108C1152.64 456.801 1149.46 458.209 1146.67 460.237C1146.55 460.333 1146.47 460.475 1146.44 460.632C1146.42 460.789 1146.46 460.948 1146.56 461.075C1147.35 462.154 1148.4 463.018 1149.61 463.588C1150.82 464.157 1152.16 464.414 1153.5 464.336C1154 464.993 1153.5 465.97 1152.8 466.444C1151.78 467.174 1150.37 467.341 1150.16 469.085C1150.09 469.691 1150.22 470.303 1150.51 470.836C1151.29 472.011 1152.48 472.842 1153.86 473.155C1160.47 475.183 1167.63 471.623 1172.58 466.787C1177.54 461.951 1181.09 455.845 1185.95 450.929C1188.65 448.201 1191.7 445.874 1194.48 443.233C1200.01 437.959 1204.31 431.562 1208.46 425.15C1209.71 423.217 1210.97 421.233 1211.49 418.993C1212.01 416.754 1211.77 414.485 1212.36 412.319C1213.13 409.481 1215.21 407.213 1216.94 404.835C1220.33 400.166 1222.6 394.454 1222.15 388.699C1221.7 382.944 1218.14 377.268 1212.71 375.314C1211.02 374.645 1209.17 374.532 1207.42 374.993C1205.19 375.678 1203.55 377.516 1202.03 379.282L1198.38 383.469C1197.49 384.396 1196.8 385.489 1196.33 386.686C1196.1 387.289 1196.04 387.946 1196.17 388.58C1196.3 389.214 1196.61 389.798 1197.06 390.26" fill="#FBBEBE"/>
<path d="M1207.28 358.368C1204.77 358.514 1202 358.762 1200.23 360.557C1199.48 361.381 1198.88 362.322 1198.45 363.343C1196.72 366.852 1195.05 370.521 1194.92 374.431C1194.82 377.553 1195.72 380.609 1196.2 383.695C1196.59 386.263 1195.59 388.881 1195.4 391.478C1198.52 390.523 1202.64 389.224 1205.46 387.612C1207.39 386.511 1209.25 385.256 1211.35 384.556C1214.35 383.556 1219.38 385.285 1222.23 386.671C1222.38 384.672 1220.88 381.186 1221.04 379.18C1221.06 378.335 1221.21 377.499 1221.49 376.699C1221.91 375.854 1222.42 375.05 1223 374.3C1224.08 372.534 1224.58 370.471 1224.43 368.404C1224.27 366.338 1223.46 364.375 1222.11 362.796C1219.58 359.951 1215.62 358.886 1211.84 358.419C1209.46 358.143 1207.06 358.061 1204.67 358.171" fill="#6C63FF"/>
<path d="M730.91 407.828H733.494V433H730.91V421.082H717.902V433H715.318V407.828H717.902V418.674H730.91V407.828ZM749.613 414.666H752.197V425.916C752.197 427.826 751.611 429.42 750.439 430.697C749.361 431.857 747.984 432.59 746.309 432.895C745.852 432.965 745.148 433 744.199 433C743.262 433 742.553 432.965 742.072 432.895C740.689 432.637 739.506 432.074 738.521 431.207C736.998 429.883 736.236 428.119 736.236 425.916V414.666H738.82V425.916C738.82 427.439 739.318 428.635 740.314 429.502C741.17 430.24 742.465 430.609 744.199 430.609C745.957 430.609 747.264 430.24 748.119 429.502C749.115 428.635 749.613 427.439 749.613 425.916V414.666ZM771.551 433H768.967V421.715C768.967 420.227 768.369 419.061 767.174 418.217C766.084 417.432 764.766 417.039 763.219 417.039C761.684 417.039 760.371 417.432 759.281 418.217C758.086 419.061 757.488 420.227 757.488 421.715V433H754.904V421.715C754.904 419.512 755.771 417.748 757.506 416.424C759.053 415.252 760.957 414.666 763.219 414.666C765.492 414.666 767.402 415.252 768.949 416.424C770.684 417.748 771.551 419.512 771.551 421.715V433ZM776.859 425.617C776.859 427.621 777.34 428.98 778.301 429.695C779.086 430.293 780.486 430.592 782.502 430.592H783.803V433H782.502C780.311 433 778.629 432.684 777.457 432.051C775.336 430.938 774.275 428.793 774.275 425.617V407.828H776.859V414.666H782.59V417.074H776.859V425.617ZM802.119 430.768C801.146 431.506 800.051 432.068 798.832 432.455C797.707 432.818 796.377 433 794.842 433H794.42C794.256 433 794.092 432.994 793.928 432.982C792.275 432.912 790.77 432.438 789.41 431.559C787.957 430.633 786.832 429.361 786.035 427.744C785.496 426.479 785.227 425.195 785.227 423.895C785.227 423.508 785.25 423.127 785.297 422.752C785.508 421.088 786.129 419.523 787.16 418.059C788.297 416.781 789.293 415.967 790.148 415.615C791.461 414.982 792.861 414.666 794.35 414.666C794.537 414.666 794.73 414.672 794.93 414.684C796.605 414.777 798.158 415.252 799.588 416.107C800.924 416.951 801.85 418.018 802.365 419.307C802.529 419.799 802.617 420.285 802.629 420.766V420.836C802.629 421.539 802.447 422.219 802.084 422.875C801.486 424.07 800.279 425.02 798.463 425.723C796.998 426.285 795.258 426.596 793.242 426.654H792.873C791.912 426.654 790.934 426.537 789.938 426.303C789.551 425.799 789.357 425.154 789.357 424.369C789.357 424.205 789.363 424.041 789.375 423.877C790.711 424.205 791.977 424.369 793.172 424.369C795.539 424.369 797.631 423.725 799.447 422.436C799.928 422.014 800.174 421.48 800.186 420.836C800.186 420.145 799.881 419.5 799.271 418.902C798.299 417.953 797.074 417.361 795.598 417.127C795.164 417.057 794.748 417.021 794.35 417.021C793.354 417.021 792.422 417.227 791.555 417.637C790.266 418.246 789.275 419.125 788.584 420.273C787.928 421.375 787.6 422.518 787.6 423.701C787.6 425.975 788.555 427.855 790.465 429.344C791.73 430.223 793.061 430.662 794.455 430.662C794.643 430.674 794.83 430.68 795.018 430.68C797.736 430.68 800.104 429.801 802.119 428.043V430.768ZM814.336 417.074C812.473 417.074 810.885 417.719 809.572 419.008C808.248 420.344 807.586 421.949 807.586 423.824V433H805.002V423.824C805.002 421.305 805.898 419.154 807.691 417.373C809.496 415.568 811.711 414.666 814.336 414.666V417.074ZM815.303 433V430.592H823.688C824.602 430.592 825.416 430.34 826.131 429.836C826.893 429.285 827.273 428.611 827.273 427.814C827.273 426.736 826.746 425.846 825.691 425.143C824.93 424.639 823.523 424.047 821.473 423.367C819.48 422.723 818.092 422.143 817.307 421.627C815.971 420.748 815.303 419.629 815.303 418.27C815.303 415.867 816.768 414.666 819.697 414.666H828.24V417.074H819.697C818.807 417.074 818.227 417.186 817.957 417.408C817.793 417.549 817.711 417.836 817.711 418.27C817.711 418.832 818.121 419.348 818.941 419.816C819.539 420.145 820.635 420.566 822.229 421.082C824.572 421.855 826.23 422.582 827.203 423.262C828.855 424.41 829.682 425.928 829.682 427.814C829.682 429.338 829.043 430.604 827.766 431.611C826.582 432.537 825.223 433 823.688 433H815.303ZM855.574 407.828H858.158V423.35C858.158 426.432 857.391 428.857 855.855 430.627C854.496 432.209 852.832 433 850.863 433C848.801 433 847.078 432.133 845.695 430.398C845.344 429.965 845.062 429.549 844.852 429.15C844.254 430.334 843.393 431.283 842.268 431.998C841.213 432.666 840.07 433 838.84 433C836.871 433 835.207 432.209 833.848 430.627C832.312 428.857 831.545 426.432 831.545 423.35V407.828H834.129V423.35C834.129 425.682 834.639 427.521 835.658 428.869C836.549 430.018 837.609 430.592 838.84 430.592C840.082 430.592 841.143 430.018 842.021 428.869C843.041 427.521 843.551 425.682 843.551 423.35V407.828H846.135V423.35C846.135 425.682 846.65 427.521 847.682 428.869C848.561 430.018 849.621 430.592 850.863 430.592C852.094 430.592 853.154 430.018 854.045 428.869C855.064 427.521 855.574 425.682 855.574 423.35V407.828ZM861.99 420.396L861.973 420.414V420.396H861.99ZM869.092 414.666C871.33 414.713 873.34 415.615 875.121 417.373C876.914 419.154 877.811 421.164 877.811 423.402V433H875.473V431.348C875.473 430 875.297 428.869 874.945 427.955C874.582 427.018 873.949 426.051 873.047 425.055C871.523 423.766 869.93 423.121 868.266 423.121C866.988 423.121 865.852 423.467 864.855 424.158C863.754 424.932 863.203 425.928 863.203 427.146C863.203 428.283 863.777 429.197 864.926 429.889C865.887 430.463 866.971 430.75 868.178 430.75C869.725 430.75 871.119 430.328 872.361 429.484C872.396 429.461 872.566 429.332 872.871 429.098L873.381 428.693C873.896 429.279 874.195 430.059 874.277 431.031C874.195 431.102 874.049 431.225 873.838 431.4C872.561 432.443 870.902 432.977 868.863 433H868.705C866.877 433 865.242 432.596 863.801 431.787C862.957 431.318 862.242 430.668 861.656 429.836C861.012 428.922 860.689 428.02 860.689 427.129C860.689 425.277 861.521 423.713 863.186 422.436C864.721 421.252 866.443 420.66 868.354 420.66C871.213 420.66 873.557 422.066 875.385 424.879C875.455 424.457 875.49 424.111 875.49 423.842C875.49 422.225 874.945 420.742 873.855 419.395C872.484 417.684 870.756 416.828 868.67 416.828C867.381 416.828 866.168 417.186 865.031 417.9C863.988 418.568 863.133 419.453 862.465 420.555L860.637 419.025C862.77 416.119 865.5 414.666 868.828 414.666H869.092ZM880.799 407.828H883.383V433H880.799V407.828ZM886.811 407.828H889.395V433H886.811V407.828Z" fill="#6C63FF"/>
<defs>
<linearGradient id="paint0_linear_707_308" x1="1103.41" y1="469.413" x2="1103.41" y2="112.958" gradientUnits="userSpaceOnUse">
<stop stop-color="#808080" stop-opacity="0.25"/>
<stop offset="0.54" stop-color="#808080" stop-opacity="0.12"/>
<stop offset="1" stop-color="#808080" stop-opacity="0.1"/>
</linearGradient>
</defs>
</svg>
