<svg width="29" height="29" viewBox="0 0 29 29" fill="none" xmlns="http://www.w3.org/2000/svg">
<path d="M27.625 15.6521C27.3956 18.1345 26.4639 20.5002 24.9391 22.4724C23.4142 24.4446 21.3592 25.9418 19.0145 26.7887C16.6699 27.6356 14.1325 27.7973 11.6993 27.2547C9.26605 26.7122 7.03768 25.4879 5.27489 23.7251C3.5121 21.9623 2.28781 19.7339 1.74526 17.3007C1.20271 14.8675 1.36436 12.3301 2.21127 9.98543C3.05819 7.64074 4.55536 5.58574 6.52758 4.06089C8.49981 2.53604 10.8655 1.6044 13.3479 1.375C11.8945 3.34122 11.1952 5.76378 11.377 8.20206C11.5588 10.6403 12.6098 12.9324 14.3387 14.6613C16.0676 16.3902 18.3596 17.4411 20.7979 17.623C23.2362 17.8048 25.6588 17.1054 27.625 15.6521V15.6521Z" stroke="black" stroke-width="2" stroke-linecap="round" stroke-linejoin="round"/>
</svg>
