<svg width="30" height="30" viewBox="0 0 35 43" fill="none" xmlns="http://www.w3.org/2000/svg">
<path d="M27.192 9.206V35H25.446C25.17 35 24.936 34.952 24.744 34.856C24.564 34.76 24.384 34.598 24.204 34.37L9.282 14.93C9.306 15.23 9.324 15.524 9.336 15.812C9.348 16.1 9.354 16.37 9.354 16.622V35H6.294V9.206H8.094C8.25 9.206 8.382 9.218 8.49 9.242C8.598 9.254 8.694 9.284 8.778 9.332C8.862 9.368 8.946 9.428 9.03 9.512C9.114 9.584 9.204 9.68 9.3 9.8L24.222 29.222C24.198 28.91 24.174 28.61 24.15 28.322C24.138 28.022 24.132 27.74 24.132 27.476V9.206H27.192Z" fill="white"/>
<rect y="15" width="35" height="4" fill="white"/>
<rect y="25" width="35" height="4" fill="white"/>
</svg>
