<svg width="74" height="80" viewBox="0 0 74 80" fill="none" xmlns="http://www.w3.org/2000/svg">
<path d="M56.7156 17.145V63.225H52.9076C52.3316 63.225 51.8409 63.129 51.4356 62.937C51.0303 62.7236 50.6463 62.3823 50.2836 61.913L24.9716 29.401C25.0356 30.0196 25.0783 30.6383 25.0996 31.257C25.1423 31.8543 25.1636 32.409 25.1636 32.921V63.225H18.5716V17.145H22.4756C22.7956 17.145 23.0623 17.1663 23.2756 17.209C23.5103 17.2303 23.7236 17.2836 23.9156 17.369C24.1076 17.4543 24.2889 17.5823 24.4596 17.753C24.6303 17.9236 24.8116 18.137 25.0036 18.393L50.3476 50.937C50.2836 50.2756 50.2303 49.625 50.1876 48.985C50.1663 48.345 50.1556 47.7476 50.1556 47.193V17.145H56.7156Z" fill="white"/>
<rect y="27.675" width="74" height="8.325" fill="white"/>
<rect y="43.625" width="74" height="8.325" fill="white"/>
</svg>
